# Blender v3.0.0 OBJ File: 'Button_Pressed.blend'
# www.blender.org
mtllib Button_Pressed.mtl
o Button_Pressed_Cube.510
v 0.607130 0.043180 -0.661130
v 0.661130 0.043180 -0.607130
v 0.607130 -0.010820 -0.607130
v 0.645314 0.043180 -0.645314
v 0.638307 0.012003 -0.638307
v 0.645314 0.004997 -0.607130
v 0.607130 0.004997 -0.645314
v -0.607130 0.043180 -0.661130
v -0.607130 -0.010820 -0.607130
v -0.661130 0.043180 -0.607130
v -0.607130 0.004997 -0.645314
v -0.638307 0.012003 -0.638307
v -0.645314 0.004997 -0.607130
v -0.645314 0.043180 -0.645314
v 0.607130 0.043180 0.661130
v 0.607130 -0.010820 0.607130
v 0.661130 0.043180 0.607130
v 0.607130 0.004997 0.645314
v 0.638307 0.012003 0.638307
v 0.645314 0.004997 0.607130
v 0.645314 0.043180 0.645314
v -0.661130 0.043180 0.607130
v -0.607130 -0.010820 0.607130
v -0.607130 0.043180 0.661130
v -0.645314 0.004997 0.607130
v -0.638307 0.012003 0.638307
v -0.607130 0.004997 0.645314
v -0.645314 0.043180 0.645314
v 0.607130 0.300795 -0.661130
v 0.607130 0.354795 -0.607130
v 0.661130 0.300795 -0.607130
v 0.607130 0.338979 -0.645314
v 0.638307 0.331972 -0.638307
v 0.645314 0.338979 -0.607130
v 0.645314 0.300795 -0.645314
v -0.607130 0.300795 -0.661130
v -0.661130 0.300795 -0.607130
v -0.607130 0.354795 -0.607130
v -0.645314 0.300795 -0.645314
v -0.638307 0.331972 -0.638307
v -0.645314 0.338979 -0.607130
v -0.607130 0.338979 -0.645314
v -0.661130 0.300795 0.607130
v -0.607130 0.300795 0.661130
v -0.607130 0.354795 0.607130
v -0.645314 0.300795 0.645314
v -0.638307 0.331972 0.638307
v -0.607130 0.338979 0.645314
v -0.645314 0.338979 0.607130
v 0.607130 0.300795 0.661130
v 0.661130 0.300795 0.607130
v 0.607130 0.354795 0.607130
v 0.645314 0.300795 0.645314
v 0.638307 0.331972 0.638307
v 0.645314 0.338979 0.607130
v 0.607130 0.338979 0.645314
v 0.465049 0.446100 0.465049
v 0.465049 0.392100 0.519049
v 0.519049 0.392100 0.465049
v 0.465049 0.430284 0.503233
v 0.496226 0.423277 0.496226
v 0.503233 0.392100 0.503233
v 0.503233 0.430284 0.465049
v -0.519049 0.392100 0.465049
v -0.465049 0.392100 0.519049
v -0.465049 0.446100 0.465049
v -0.503233 0.392100 0.503233
v -0.496226 0.423277 0.496226
v -0.465049 0.430284 0.503233
v -0.503233 0.430284 0.465049
v -0.465049 0.392100 -0.519049
v -0.519049 0.392100 -0.465049
v -0.465049 0.446100 -0.465049
v -0.503233 0.392100 -0.503233
v -0.496226 0.423277 -0.496226
v -0.503233 0.430284 -0.465049
v -0.465049 0.430284 -0.503233
v 0.465049 0.392100 -0.519049
v 0.465049 0.446100 -0.465049
v 0.519049 0.392100 -0.465049
v 0.465049 0.430284 -0.503233
v 0.496226 0.423277 -0.496226
v 0.503233 0.430284 -0.465049
v 0.503233 0.392100 -0.503233
v -0.465049 0.159059 0.519049
v -0.519049 0.159059 0.465049
v -0.503233 0.159059 0.503233
v 0.519049 0.159059 0.465049
v 0.465049 0.159059 0.519049
v 0.503233 0.159059 0.503233
v -0.519049 0.159059 -0.465049
v -0.465049 0.159059 -0.519049
v -0.503233 0.159059 -0.503233
v 0.465049 0.159059 -0.519049
v 0.519049 0.159059 -0.465049
v 0.503233 0.159059 -0.503233
vt 0.016602 0.797852
vt 0.016602 0.797852
vt 0.016602 0.797852
vt 0.016602 0.797852
vt 0.045898 0.983398
vt 0.045898 0.983398
vt 0.045898 0.983398
vt 0.045898 0.983398
vt 0.016602 0.797852
vt 0.016602 0.797852
vt 0.016602 0.797852
vt 0.016602 0.797852
vt 0.016602 0.797852
vt 0.016602 0.797852
vt 0.016602 0.797852
vt 0.016602 0.797852
vt 0.016602 0.797852
vt 0.016602 0.797852
vt 0.016602 0.797852
vt 0.016602 0.797852
vt 0.016602 0.797852
vt 0.016602 0.797852
vt 0.016602 0.797852
vt 0.016602 0.797852
vt 0.045898 0.983398
vt 0.045898 0.983398
vt 0.045898 0.983398
vt 0.045898 0.983398
vt 0.045898 0.983398
vt 0.045898 0.983398
vt 0.045898 0.983398
vt 0.045898 0.983398
vt 0.045898 0.983398
vt 0.045898 0.983398
vt 0.045898 0.983398
vt 0.045898 0.983398
vt 0.045898 0.983398
vt 0.045898 0.983398
vt 0.045898 0.983398
vt 0.045898 0.983398
vt 0.016602 0.797852
vt 0.016602 0.797852
vt 0.016602 0.797852
vt 0.016602 0.797852
vt 0.016602 0.797852
vt 0.016602 0.797852
vt 0.016602 0.797852
vt 0.016602 0.797852
vt 0.016602 0.797852
vt 0.016602 0.797852
vt 0.016602 0.797852
vt 0.016602 0.797852
vt 0.016602 0.797852
vt 0.016602 0.797852
vt 0.016602 0.797852
vt 0.016602 0.797852
vt 0.016602 0.797852
vt 0.016602 0.797852
vt 0.016602 0.797852
vt 0.016602 0.797852
vt 0.016602 0.797852
vt 0.016602 0.797852
vt 0.016602 0.797852
vt 0.016602 0.797852
vt 0.016602 0.797852
vt 0.016602 0.797852
vt 0.016602 0.797852
vt 0.016602 0.797852
vt 0.016602 0.797852
vt 0.016602 0.797852
vt 0.016602 0.797852
vt 0.016602 0.797852
vt 0.016602 0.797852
vt 0.016602 0.797852
vt 0.016602 0.797852
vt 0.016602 0.797852
vt 0.045898 0.983398
vt 0.045898 0.983398
vt 0.045898 0.983398
vt 0.045898 0.983398
vt 0.045898 0.983398
vt 0.045898 0.983398
vt 0.045898 0.983398
vt 0.045898 0.983398
vt 0.045898 0.983398
vt 0.045898 0.983398
vt 0.045898 0.983398
vt 0.045898 0.983398
vt 0.045898 0.983398
vt 0.045898 0.983398
vt 0.045898 0.983398
vt 0.045898 0.983398
vt 0.045898 0.983398
vt 0.045898 0.983398
vt 0.045898 0.983398
vt 0.045898 0.983398
vn 0.9673 -0.1794 -0.1794
vn 0.9673 0.1794 -0.1794
vn 0.9673 0.1794 0.1794
vn 0.9673 -0.1794 0.1794
vn -0.1794 0.9673 0.1794
vn 0.1794 0.9673 0.1794
vn 0.1794 0.9673 -0.1794
vn -0.1794 0.9673 -0.1794
vn -0.9673 -0.1794 0.1794
vn -0.9673 0.1794 0.1794
vn -0.9673 0.1794 -0.1794
vn -0.9673 -0.1794 -0.1794
vn 0.1794 -0.1794 0.9673
vn 0.1794 0.1794 0.9673
vn -0.1794 0.1794 0.9673
vn -0.1794 -0.1794 0.9673
vn -0.1794 -0.9673 0.1794
vn -0.1794 -0.9673 -0.1794
vn 0.1794 -0.9673 -0.1794
vn 0.1794 -0.9673 0.1794
vn 0.9808 -0.0000 -0.1951
vn 0.9808 -0.0000 0.1951
vn -0.1951 -0.0000 -0.9808
vn -0.1794 0.1794 -0.9673
vn 0.1794 0.1794 -0.9673
vn 0.1951 -0.0000 -0.9808
vn -0.9808 -0.0000 0.1951
vn -0.9808 -0.0000 -0.1951
vn 0.1951 -0.0000 0.9808
vn -0.1951 -0.0000 0.9808
vn 0.1794 -0.1794 -0.9673
vn 0.3600 -0.1585 -0.9194
vn 0.3251 -0.3251 -0.8881
vn 0.1585 -0.3600 -0.9194
vn 0.9194 -0.3600 -0.1585
vn 0.8881 -0.3251 -0.3251
vn 0.9194 -0.1585 -0.3600
vn 0.1585 -0.9194 -0.3600
vn 0.3251 -0.8881 -0.3251
vn 0.3600 -0.9194 -0.1585
vn -0.1794 -0.1794 -0.9673
vn -0.1585 -0.3600 -0.9194
vn -0.3251 -0.3251 -0.8881
vn -0.3600 -0.1585 -0.9194
vn -0.3600 -0.9194 -0.1585
vn -0.3251 -0.8881 -0.3251
vn -0.1585 -0.9194 -0.3600
vn -0.9194 -0.1585 -0.3600
vn -0.8881 -0.3251 -0.3251
vn -0.9194 -0.3600 -0.1585
vn 0.1585 -0.3600 0.9194
vn 0.3251 -0.3251 0.8881
vn 0.3600 -0.1585 0.9194
vn 0.3600 -0.9194 0.1585
vn 0.3251 -0.8881 0.3251
vn 0.1585 -0.9194 0.3600
vn 0.9194 -0.1585 0.3600
vn 0.8881 -0.3251 0.3251
vn 0.9194 -0.3600 0.1585
vn -0.9194 -0.3600 0.1585
vn -0.8881 -0.3251 0.3251
vn -0.9194 -0.1585 0.3600
vn -0.1585 -0.9194 0.3600
vn -0.3251 -0.8881 0.3251
vn -0.3600 -0.9194 0.1585
vn -0.3600 -0.1585 0.9194
vn -0.3251 -0.3251 0.8881
vn -0.1585 -0.3600 0.9194
vn 0.1585 0.3600 -0.9194
vn 0.3251 0.3251 -0.8881
vn 0.3600 0.1585 -0.9194
vn 0.3600 0.9194 -0.1585
vn 0.3251 0.8881 -0.3251
vn 0.1585 0.9194 -0.3600
vn 0.9194 0.1585 -0.3600
vn 0.8881 0.3251 -0.3251
vn 0.9194 0.3600 -0.1585
vn -0.3600 0.1585 -0.9194
vn -0.3251 0.3251 -0.8881
vn -0.1585 0.3600 -0.9194
vn -0.9194 0.3600 -0.1585
vn -0.8881 0.3251 -0.3251
vn -0.9194 0.1585 -0.3600
vn -0.1585 0.9194 -0.3600
vn -0.3251 0.8881 -0.3251
vn -0.3600 0.9194 -0.1585
vn -0.9194 0.1585 0.3600
vn -0.8881 0.3251 0.3251
vn -0.9194 0.3600 0.1585
vn -0.1585 0.3600 0.9194
vn -0.3251 0.3251 0.8881
vn -0.3600 0.1585 0.9194
vn -0.3600 0.9194 0.1585
vn -0.3251 0.8881 0.3251
vn -0.1585 0.9194 0.3600
vn 0.3600 0.1585 0.9194
vn 0.3251 0.3251 0.8881
vn 0.1585 0.3600 0.9194
vn 0.9194 0.3600 0.1585
vn 0.8881 0.3251 0.3251
vn 0.9194 0.1585 0.3600
vn 0.1585 0.9194 0.3600
vn 0.3251 0.8881 0.3251
vn 0.3600 0.9194 0.1585
vn -0.9239 -0.0000 0.3827
vn -0.3827 -0.0000 0.9239
vn -0.9239 -0.0000 -0.3827
vn -0.3827 -0.0000 -0.9239
vn 0.9239 -0.0000 0.3827
vn 0.3827 -0.0000 0.9239
vn 0.9239 -0.0000 -0.3827
vn 0.3827 -0.0000 -0.9239
usemtl Atlas
s 1
f 2/1/1 31/2/2 51/3/3 17/4/4
f 66/5/5 57/6/6 79/7/7 73/8/8
f 22/9/9 43/10/10 37/11/11 10/12/12
f 15/13/13 50/14/14 44/15/15 24/16/16
f 45/17/5 52/18/6 30/19/7 38/20/8
f 23/21/17 9/22/18 3/23/19 16/24/20
f 95/25/21 80/26/2 59/27/3 88/28/22
f 92/29/23 71/30/24 78/31/25 94/32/26
f 86/33/27 64/34/10 72/35/11 91/36/28
f 89/37/29 58/38/14 65/39/15 85/40/30
f 1/41/31 4/42/32 5/43/33 7/44/34
f 2/1/1 6/45/35 5/43/36 4/42/37
f 3/23/19 7/44/38 5/43/39 6/45/40
f 8/46/41 11/47/42 12/48/43 14/49/44
f 9/22/18 13/50/45 12/48/46 11/47/47
f 10/12/12 14/49/48 12/48/49 13/50/50
f 15/13/13 18/51/51 19/52/52 21/53/53
f 16/24/20 20/54/54 19/52/55 18/51/56
f 17/4/4 21/53/57 19/52/58 20/54/59
f 22/9/9 25/55/60 26/56/61 28/57/62
f 23/21/17 27/58/63 26/56/64 25/55/65
f 24/16/16 28/57/66 26/56/67 27/58/68
f 29/59/25 32/60/69 33/61/70 35/62/71
f 30/19/7 34/63/72 33/61/73 32/60/74
f 31/2/2 35/62/75 33/61/76 34/63/77
f 36/64/24 39/65/78 40/66/79 42/67/80
f 37/11/11 41/68/81 40/66/82 39/65/83
f 38/20/8 42/67/84 40/66/85 41/68/86
f 43/10/10 46/69/87 47/70/88 49/71/89
f 44/15/15 48/72/90 47/70/91 46/69/92
f 45/17/5 49/71/93 47/70/94 48/72/95
f 50/14/14 53/73/96 54/74/97 56/75/98
f 51/3/3 55/76/99 54/74/100 53/73/101
f 52/18/6 56/75/102 54/74/103 55/76/104
f 57/6/6 60/77/102 61/78/103 63/79/104
f 58/38/14 62/80/96 61/78/97 60/77/98
f 59/27/3 63/79/99 61/78/100 62/80/101
f 64/34/10 67/81/87 68/82/88 70/83/89
f 65/39/15 69/84/90 68/82/91 67/81/92
f 66/5/5 70/83/93 68/82/94 69/84/95
f 71/30/24 74/85/78 75/86/79 77/87/80
f 72/35/11 76/88/81 75/86/82 74/85/83
f 73/8/8 77/87/84 75/86/85 76/88/86
f 78/31/25 81/89/69 82/90/70 84/91/71
f 79/7/7 83/92/72 82/90/73 81/89/74
f 80/26/2 84/91/75 82/90/76 83/92/77
f 3/23/19 9/22/18 11/47/47 7/44/38
f 7/44/34 11/47/42 8/46/41 1/41/31
f 9/22/18 23/21/17 25/55/65 13/50/45
f 13/50/50 25/55/60 22/9/9 10/12/12
f 23/21/17 16/24/20 18/51/56 27/58/63
f 27/58/68 18/51/51 15/13/13 24/16/16
f 16/24/20 3/23/19 6/45/40 20/54/54
f 20/54/59 6/45/35 2/1/1 17/4/4
f 29/59/25 36/64/24 42/67/80 32/60/69
f 32/60/74 42/67/84 38/20/8 30/19/7
f 37/11/11 43/10/10 49/71/89 41/68/81
f 41/68/86 49/71/93 45/17/5 38/20/8
f 44/15/15 50/14/14 56/75/98 48/72/90
f 48/72/95 56/75/102 52/18/6 45/17/5
f 51/3/3 31/2/2 34/63/77 55/76/99
f 55/76/104 34/63/72 30/19/7 52/18/6
f 17/4/4 51/3/3 53/73/101 21/53/57
f 21/53/53 53/73/96 50/14/14 15/13/13
f 31/2/2 2/1/1 4/42/37 35/62/75
f 35/62/71 4/42/32 1/41/31 29/59/25
f 10/12/12 37/11/11 39/65/83 14/49/48
f 14/49/44 39/65/78 36/64/24 8/46/41
f 43/10/10 22/9/9 28/57/62 46/69/87
f 46/69/92 28/57/66 24/16/16 44/15/15
f 64/34/10 86/33/27 87/93/105 67/81/87
f 67/81/92 87/93/106 85/40/30 65/39/15
f 65/39/15 58/38/14 60/77/98 69/84/90
f 69/84/95 60/77/102 57/6/6 66/5/5
f 91/36/28 72/35/11 74/85/83 93/94/107
f 93/94/108 74/85/78 71/30/24 92/29/23
f 88/28/22 59/27/3 62/80/101 90/95/109
f 90/95/110 62/80/96 58/38/14 89/37/29
f 80/26/2 95/25/21 96/96/111 84/91/75
f 84/91/71 96/96/112 94/32/26 78/31/25
f 72/35/11 64/34/10 70/83/89 76/88/81
f 76/88/86 70/83/93 66/5/5 73/8/8
f 59/27/3 80/26/2 83/92/77 63/79/99
f 63/79/104 83/92/72 79/7/7 57/6/6
f 78/31/25 71/30/24 77/87/80 81/89/69
f 81/89/74 77/87/84 73/8/8 79/7/7
f 8/46/41 36/64/24 29/59/25 1/41/31
