# Blender v3.0.0 OBJ File: 'Cart.blend'
# www.blender.org
mtllib Cart.mtl
o Cart_Cube.566
v -0.980096 0.037105 0.885420
v -0.980096 1.129917 0.885420
v -0.980096 0.037105 -0.885420
v -0.980096 1.129917 -0.885420
v 0.980096 0.037105 0.885420
v 0.980096 1.129917 0.885420
v 0.980096 0.037105 -0.885420
v 0.980096 1.129917 -0.885420
v -0.820658 1.129917 0.741383
v -0.820658 1.129917 -0.741383
v 0.820658 1.129917 -0.741383
v 0.820658 1.129917 0.741383
v -0.820658 0.176045 0.741383
v -0.820658 0.176045 -0.741383
v 0.820658 0.176045 -0.741383
v 0.820658 0.176045 0.741383
vt 0.017114 0.829417
vt 0.017114 0.829417
vt 0.017114 0.829417
vt 0.017114 0.829417
vt 0.017114 0.829417
vt 0.017114 0.829417
vt 0.017114 0.829417
vt 0.017114 0.829417
vt 0.017114 0.829417
vt 0.017114 0.829417
vt 0.017114 0.829417
vt 0.017114 0.829417
vt 0.017114 0.829417
vt 0.017114 0.829417
vt 0.017114 0.829417
vt 0.017114 0.829417
vn -1.0000 0.0000 0.0000
vn 0.0000 0.0000 -1.0000
vn 1.0000 0.0000 0.0000
vn 0.0000 0.0000 1.0000
vn 0.0000 -1.0000 0.0000
vn -0.0000 1.0000 0.0000
usemtl Atlas
s off
f 1/1/1 2/2/1 4/3/1 3/4/1
f 3/4/2 4/3/2 8/5/2 7/6/2
f 7/6/3 8/5/3 6/7/3 5/8/3
f 5/8/4 6/7/4 2/2/4 1/1/4
f 3/4/5 7/6/5 5/8/5 1/1/5
f 6/7/6 8/5/6 11/9/6 12/10/6
f 9/11/2 12/10/2 16/12/2 13/13/2
f 4/3/6 2/2/6 9/11/6 10/14/6
f 2/2/6 6/7/6 12/10/6 9/11/6
f 8/5/6 4/3/6 10/14/6 11/9/6
f 15/15/6 14/16/6 13/13/6 16/12/6
f 11/9/4 10/14/4 14/16/4 15/15/4
f 12/10/1 11/9/1 15/15/1 16/12/1
f 10/14/3 9/11/3 13/13/3 14/16/3
