# Blender v3.0.0 OBJ File: 'Door_Closed.blend'
# www.blender.org
mtllib Door_Closed.mtl
o Door_Closed_Cube.466
v -1.000000 0.000000 1.000000
v -1.000000 2.000000 1.000000
v 1.000000 0.000000 1.000000
v 1.000000 2.000000 1.000000
v -1.000000 2.000000 0.810401
v -1.000000 0.000000 0.810401
v -0.480543 3.480543 1.000000
v 1.000000 4.000000 1.000000
v 0.480543 3.480543 1.000000
v -0.480543 2.519457 1.000000
v -1.000000 4.000000 1.000000
v 0.480543 2.519457 1.000000
v 1.000000 0.000000 0.810401
v 1.000000 2.000000 0.810401
v -0.480543 3.480543 0.810401
v 1.000000 4.000000 0.810401
v 0.480543 3.480543 0.810401
v -0.480543 2.519457 0.810401
v -1.000000 4.000000 0.810401
v 0.480543 2.519457 0.810401
v -0.595422 3.047402 0.983818
v -0.595422 2.936473 0.983818
v -0.595422 3.047402 0.826583
v -0.595422 2.936473 0.826583
v 0.595422 3.047402 0.826583
v 0.595422 2.936473 0.826583
v 0.595422 3.047402 0.983818
v 0.595422 2.936473 0.983818
v 0.055464 3.530350 0.983818
v -0.055464 3.530350 0.983818
v 0.055464 3.530350 0.826583
v -0.055464 3.530350 0.826583
v 0.055464 2.339506 0.826583
v -0.055464 2.339506 0.826583
v 0.055464 2.339506 0.983818
v -0.055464 2.339506 0.983818
v -0.891286 1.949014 1.112732
v -0.891286 1.949014 0.923134
v -0.667641 1.949014 1.112732
v -0.667641 1.949014 0.923134
v -0.667641 1.949014 1.112732
v -0.667641 1.949014 0.923134
v -0.891286 1.709735 1.112732
v -0.891286 1.709735 0.923134
v -0.667641 1.709735 1.112732
v -0.667641 1.709735 0.923134
v -0.667641 1.709735 1.112732
v -0.667641 1.709735 0.923134
vt 0.047343 0.859645
vt 0.047343 0.859645
vt 0.047343 0.859645
vt 0.047343 0.859645
vt 0.047343 0.859645
vt 0.047343 0.859645
vt 0.047343 0.859645
vt 0.047343 0.859645
vt 0.047343 0.859645
vt 0.047343 0.859645
vt 0.047343 0.859645
vt 0.047343 0.859645
vt 0.047343 0.859645
vt 0.047343 0.859645
vt 0.047343 0.859645
vt 0.047343 0.859645
vt 0.047343 0.859645
vt 0.047343 0.859645
vt 0.047343 0.859645
vt 0.047343 0.859645
vt 0.047343 0.859645
vt 0.047343 0.859645
vt 0.047343 0.859645
vt 0.047343 0.859645
vt 0.047343 0.859645
vt 0.047343 0.859645
vt 0.047343 0.859645
vt 0.047343 0.859645
vt 0.047343 0.859645
vt 0.047343 0.859645
vt 0.047343 0.859645
vt 0.047343 0.859645
vt 0.047343 0.859645
vt 0.047343 0.859645
vt 0.047343 0.859645
vt 0.047343 0.859645
vt 0.079897 0.856545
vt 0.079897 0.856545
vt 0.079897 0.856545
vt 0.079897 0.856545
vt 0.079897 0.856545
vt 0.079897 0.856545
vt 0.079897 0.856545
vt 0.079897 0.856545
vt 0.079897 0.856545
vt 0.079897 0.856545
vt 0.079897 0.856545
vt 0.079897 0.856545
vn 0.0000 0.0000 -1.0000
vn 0.0000 0.0000 1.0000
vn 0.0000 -1.0000 0.0000
vn -1.0000 0.0000 0.0000
vn 1.0000 0.0000 0.0000
vn 0.0000 1.0000 0.0000
usemtl Material.007
s off
f 14/1/1 20/2/1 17/3/1 16/4/1
f 3/5/2 4/6/2 2/7/2 1/8/2
f 5/9/1 18/10/1 20/2/1 14/1/1
f 19/11/1 15/12/1 18/10/1 5/9/1
f 7/13/3 15/12/3 17/3/3 9/14/3
f 11/15/2 2/7/2 10/16/2 7/13/2
f 2/7/2 4/6/2 12/17/2 10/16/2
f 4/6/2 8/18/2 9/14/2 12/17/2
f 13/19/1 6/20/1 5/9/1 14/1/1
f 6/20/4 1/8/4 2/7/4 5/9/4
f 5/9/4 2/7/4 11/15/4 19/11/4
f 16/4/5 8/18/5 4/6/5 14/1/5
f 14/1/5 4/6/5 3/5/5 13/19/5
f 27/21/2 21/22/2 22/23/2 28/24/2
f 7/13/5 10/16/5 18/10/5 15/12/5
f 10/16/6 12/17/6 20/2/6 18/10/6
f 12/17/4 9/14/4 17/3/4 20/2/4
f 15/12/1 19/11/1 16/4/1 17/3/1
f 19/11/6 11/15/6 8/18/6 16/4/6
f 26/25/1 24/26/1 23/27/1 25/28/1
f 28/24/3 22/23/3 24/26/3 26/25/3
f 8/18/2 11/15/2 7/13/2 9/14/2
f 25/28/6 23/27/6 21/22/6 27/21/6
f 32/29/4 34/30/4 36/31/4 30/32/4
f 30/32/2 36/31/2 35/33/2 29/34/2
f 29/34/5 35/33/5 33/35/5 31/36/5
f 31/36/1 33/35/1 34/30/1 32/29/1
usemtl Atlas
f 38/37/6 37/38/6 39/39/6 40/40/6
f 40/40/2 39/39/2 41/41/2 42/42/2
f 44/43/3 46/44/3 45/45/3 43/46/3
f 46/44/2 48/47/2 47/48/2 45/45/2
f 42/42/2 48/47/2 46/44/2 40/40/2
f 37/38/2 43/46/2 45/45/2 39/39/2
f 39/39/2 45/45/2 47/48/2 41/41/2
f 41/41/5 47/48/5 48/47/5 42/42/5
f 40/40/1 46/44/1 44/43/1 38/37/1
f 38/37/4 44/43/4 43/46/4 37/38/4
