# Blender v3.0.0 OBJ File: 'Fence_Corner.blend'
# www.blender.org
mtllib Fence_Corner.mtl
o Fence_Corner_Cube.580
v -1.000000 0.449314 0.267427
v -1.000000 0.556057 0.160683
v -1.000000 0.556057 -0.160683
v -1.000000 0.449314 -0.267426
v -1.000000 0.021204 0.160683
v -1.000000 0.127948 0.267427
v -1.000000 0.127948 -0.267426
v -1.000000 0.021204 -0.160683
v -0.196589 -1.000000 0.290604
v -0.290604 -1.000000 0.196589
v -0.196589 0.918909 0.290604
v -0.196589 1.000000 0.196589
v -0.290604 0.918909 0.196589
v -0.290604 -1.000000 -0.196589
v -0.196589 -1.000000 -0.290604
v -0.196589 1.000000 -0.196589
v -0.196589 0.918909 -0.290604
v -0.290604 0.918909 -0.196589
v 0.290604 -1.000000 0.196589
v 0.196589 -1.000000 0.290604
v 0.196589 1.000000 0.196589
v 0.196589 0.918909 0.290604
v 0.290604 0.918909 0.196589
v 0.196589 -1.000000 -0.290604
v 0.290604 -1.000000 -0.196589
v 0.196589 1.000000 -0.196589
v 0.290604 0.918909 -0.196589
v 0.196589 0.918909 -0.290604
v 0.000000 0.449314 0.267426
v 0.000000 0.556057 0.160683
v 0.000000 0.449314 -0.267426
v 0.000000 0.556057 -0.160683
v -0.000000 0.021204 -0.160683
v 0.000000 0.127948 -0.267426
v 0.000000 0.127948 0.267426
v 0.000000 0.021204 0.160683
v -1.000000 -0.356155 0.187850
v -1.000000 -0.281175 0.112870
v -1.000000 -0.281175 -0.112869
v -1.000000 -0.356155 -0.187850
v -1.000000 -0.656875 0.112870
v -1.000000 -0.581894 0.187850
v -1.000000 -0.581894 -0.187850
v -1.000000 -0.656875 -0.112869
v 0.000000 -0.356155 0.187850
v 0.000000 -0.281175 0.112870
v 0.000000 -0.356155 -0.187850
v 0.000000 -0.281175 -0.112869
v -0.000000 -0.656875 -0.112870
v 0.000000 -0.581894 -0.187850
v 0.000000 -0.581895 0.187850
v 0.000000 -0.656875 0.112869
v -0.160683 0.556057 1.000000
v -0.267426 0.449314 1.000000
v 0.267427 0.449314 1.000000
v 0.160683 0.556057 1.000000
v -0.267426 0.127947 1.000000
v -0.160683 0.021204 1.000000
v 0.160683 0.021204 1.000000
v 0.267427 0.127948 1.000000
v -0.196589 -1.000000 0.290604
v -0.196589 0.918909 0.290604
v 0.196589 -1.000000 0.290604
v 0.196589 0.918909 0.290604
v -0.267426 0.449314 0.000000
v -0.160683 0.556057 -0.000000
v 0.267426 0.449314 0.000000
v 0.160683 0.556057 0.000000
v 0.160683 0.021204 -0.000000
v 0.267426 0.127948 0.000000
v -0.267426 0.127948 -0.000000
v -0.160683 0.021204 -0.000000
v -0.112869 -0.281175 1.000000
v -0.187850 -0.356155 1.000000
v 0.187850 -0.356155 1.000000
v 0.112870 -0.281175 1.000000
v -0.187850 -0.581895 1.000000
v -0.112869 -0.656875 1.000000
v 0.112870 -0.656875 1.000000
v 0.187850 -0.581894 1.000000
v -0.187850 -0.356155 0.000000
v -0.112870 -0.281175 -0.000000
v 0.187850 -0.356155 0.000000
v 0.112869 -0.281175 0.000000
v 0.112870 -0.656875 -0.000000
v 0.187850 -0.581894 0.000000
v -0.187850 -0.581895 -0.000000
v -0.112869 -0.656875 -0.000000
vt 0.043467 0.826316
vt 0.043467 0.826316
vt 0.043467 0.826316
vt 0.043467 0.826316
vt 0.043467 0.826316
vt 0.043467 0.826316
vt 0.043467 0.826316
vt 0.043467 0.826316
vt 0.043467 0.826316
vt 0.043467 0.826316
vt 0.043467 0.826316
vt 0.043467 0.826316
vt 0.043467 0.826316
vt 0.043467 0.826316
vt 0.043467 0.826316
vt 0.043467 0.826316
vt 0.043467 0.826316
vt 0.043467 0.826316
vt 0.043467 0.826316
vt 0.043467 0.826316
vt 0.043467 0.826316
vt 0.043467 0.826316
vt 0.043467 0.826316
vt 0.043467 0.826316
vt 0.043467 0.826316
vt 0.043467 0.826316
vt 0.043467 0.826316
vt 0.043467 0.826316
vt 0.043467 0.826316
vt 0.043467 0.826316
vt 0.043467 0.826316
vt 0.043467 0.826316
vt 0.043467 0.826316
vt 0.043467 0.826316
vt 0.043467 0.826316
vt 0.043467 0.826316
vt 0.043467 0.826316
vt 0.043467 0.826316
vt 0.043467 0.826316
vt 0.043467 0.826316
vt 0.043467 0.826316
vt 0.043467 0.826316
vt 0.043467 0.826316
vt 0.043467 0.826316
vt 0.043467 0.826316
vt 0.043467 0.826316
vt 0.043467 0.826316
vt 0.043467 0.826316
vt 0.043467 0.826316
vt 0.043467 0.826316
vt 0.043467 0.826316
vt 0.043467 0.826316
vt 0.043467 0.826316
vt 0.043467 0.826316
vt 0.043467 0.826316
vt 0.043467 0.826316
vt 0.043467 0.826316
vt 0.043467 0.826316
vt 0.043467 0.826316
vt 0.043467 0.826316
vt 0.043467 0.826316
vt 0.043467 0.826316
vt 0.043467 0.826316
vt 0.043467 0.826316
vt 0.043467 0.826316
vt 0.043467 0.826316
vt 0.043467 0.826316
vt 0.043467 0.826316
vt 0.043467 0.826316
vt 0.043467 0.826316
vt 0.043467 0.826316
vt 0.043467 0.826316
vt 0.043467 0.826316
vt 0.043467 0.826316
vt 0.043467 0.826316
vt 0.043467 0.826316
vt 0.043467 0.826316
vt 0.043467 0.826316
vt 0.043467 0.826316
vt 0.043467 0.826316
vt 0.043467 0.826316
vt 0.043467 0.826316
vt 0.043467 0.826316
vt 0.043467 0.826316
vt 0.043467 0.826316
vt 0.043467 0.826316
vt 0.043467 0.826316
vt 0.043467 0.826316
vn 0.0000 0.0000 1.0000
vn 0.0000 1.0000 0.0000
vn -1.0000 0.0000 0.0000
vn 0.0000 0.0000 -1.0000
vn -0.0000 0.7071 -0.7071
vn -0.0000 -0.7071 -0.7071
vn 0.0000 -0.7071 0.7071
vn -0.2222 0.7383 0.6368
vn -0.4247 0.7996 0.4247
vn -0.6368 0.7383 0.2222
vn -0.4247 0.7996 -0.4247
vn -0.2222 0.7383 -0.6368
vn -0.6368 0.7383 -0.2222
vn 0.4247 0.7996 0.4247
vn 0.2222 0.7383 0.6368
vn 0.6368 0.7383 0.2222
vn 0.4247 0.7996 -0.4247
vn 0.6368 0.7383 -0.2222
vn 0.2222 0.7383 -0.6368
vn -0.7071 0.0000 0.7071
vn -0.7071 0.0000 -0.7071
vn 0.7071 0.0000 -0.7071
vn 0.7071 0.0000 0.7071
vn 0.0000 -1.0000 -0.0000
vn 0.0000 0.7071 0.7071
vn 1.0000 0.0000 -0.0000
vn -0.7071 0.7071 0.0000
vn -0.7071 -0.7071 0.0000
vn 0.7071 -0.7071 -0.0000
vn 0.7071 0.7071 -0.0000
usemtl Atlas
s 1
f 20/1/1 22/2/1 11/3/1 9/4/1
f 26/5/2 16/6/2 12/7/2 21/8/2
f 10/9/3 13/10/3 18/11/3 14/12/3
f 15/13/4 17/14/4 28/15/4 24/16/4
f 31/17/5 4/18/5 3/19/5 32/20/5
f 33/21/6 8/22/6 7/23/6 34/24/6
f 35/25/7 6/26/7 5/27/7 36/28/7
f 11/3/8 12/7/9 13/10/10
f 16/6/11 17/14/12 18/11/13
f 21/8/14 22/2/15 23/29/16
f 26/5/17 27/30/18 28/15/19
f 9/4/20 11/3/20 13/10/20 10/9/20
f 12/7/9 16/6/11 18/11/13 13/10/10
f 17/14/21 15/13/21 14/12/21 18/11/21
f 16/6/11 26/5/17 28/15/19 17/14/12
f 27/30/22 25/31/22 24/16/22 28/15/22
f 26/5/17 21/8/14 23/29/16 27/30/18
f 22/2/23 20/1/23 19/32/23 23/29/23
f 21/8/14 12/7/9 11/3/8 22/2/15
f 14/12/24 15/13/24 24/16/24 25/31/24 19/32/24 20/1/24 9/4/24 10/9/24
f 1/33/25 29/34/25 30/35/25 2/36/25
f 4/18/4 31/17/4 34/24/4 7/23/4
f 2/36/2 30/35/2 32/20/2 3/19/2
f 8/22/24 33/21/24 36/28/24 5/27/24
f 6/26/1 35/25/1 29/34/1 1/33/1
f 47/37/5 40/38/5 39/39/5 48/40/5
f 49/41/6 44/42/6 43/43/6 50/44/6
f 51/45/7 42/46/7 41/47/7 52/48/7
f 37/49/25 45/50/25 46/51/25 38/52/25
f 40/38/4 47/37/4 50/44/4 43/43/4
f 38/52/2 46/51/2 48/40/2 39/39/2
f 44/42/24 49/41/24 52/48/24 41/47/24
f 42/46/1 51/45/1 45/50/1 37/49/1
f 63/53/1 64/54/1 62/55/1 61/56/1
f 71/57/3 57/58/3 54/59/3 65/60/3
f 69/61/24 59/62/24 58/63/24 72/64/24
f 66/65/2 53/66/2 56/67/2 68/68/2
f 67/69/26 55/70/26 60/71/26 70/72/26
f 65/60/27 54/59/27 53/66/27 66/65/27
f 57/58/28 71/57/28 72/64/28 58/63/28
f 59/62/29 69/61/29 70/72/29 60/71/29
f 55/70/30 67/69/30 68/68/30 56/67/30
f 87/73/3 77/74/3 74/75/3 81/76/3
f 85/77/24 79/78/24 78/79/24 88/80/24
f 82/81/2 73/82/2 76/83/2 84/84/2
f 83/85/26 75/86/26 80/87/26 86/88/26
f 81/76/27 74/75/27 73/82/27 82/81/27
f 77/74/28 87/73/28 88/80/28 78/79/28
f 79/78/29 85/77/29 86/88/29 80/87/29
f 75/86/30 83/85/30 84/84/30 76/83/30
f 27/30/26 23/29/26 19/32/26 25/31/26
