# Blender v3.0.0 OBJ File: 'Grass_Big.blend'
# www.blender.org
mtllib Grass_Big.mtl
o Grass_Big_Cube.086
v -0.421059 0.000000 0.010970
v -0.421059 0.030000 0.040970
v -0.451059 0.030000 0.010970
v -0.421059 0.606365 0.040970
v -0.421059 0.636365 0.010970
v -0.451059 0.606365 0.010970
v -0.421059 0.000000 -0.081102
v -0.451059 0.030000 -0.081102
v -0.421059 0.030000 -0.111102
v -0.421059 0.636365 -0.081102
v -0.421059 0.606365 -0.111102
v -0.451059 0.606365 -0.081102
v -0.376081 0.000000 0.010970
v -0.346081 0.030000 0.010970
v -0.376081 0.030000 0.040970
v -0.376081 0.636365 0.010970
v -0.376081 0.606365 0.040970
v -0.346081 0.606365 0.010970
v -0.376081 0.000000 -0.081102
v -0.376081 0.030000 -0.111102
v -0.346081 0.030000 -0.081102
v -0.376081 0.636365 -0.081102
v -0.346081 0.606365 -0.081102
v -0.376081 0.606365 -0.111102
v -0.204306 0.000000 -0.168904
v -0.204306 0.030000 -0.138904
v -0.234306 0.030000 -0.168904
v -0.204306 1.014497 -0.138904
v -0.204306 1.044497 -0.168904
v -0.234306 1.014497 -0.168904
v -0.204306 0.000000 -0.288516
v -0.234306 0.030000 -0.288516
v -0.204306 0.030000 -0.318516
v -0.204306 1.044497 -0.288516
v -0.204306 1.014497 -0.318516
v -0.234306 1.014497 -0.288516
v -0.103892 0.000000 -0.168904
v -0.073892 0.030000 -0.168904
v -0.103892 0.030000 -0.138904
v -0.103892 1.044497 -0.168904
v -0.103892 1.014497 -0.138904
v -0.073892 1.014497 -0.168904
v -0.103892 0.000000 -0.288516
v -0.103892 0.030000 -0.318516
v -0.073892 0.030000 -0.288516
v -0.103892 1.044497 -0.288516
v -0.073892 1.014497 -0.288516
v -0.103892 1.014497 -0.318516
v 0.194763 0.000000 0.148325
v 0.194763 0.030000 0.178325
v 0.164763 0.030000 0.148325
v 0.194763 0.419778 0.178325
v 0.194763 0.449778 0.148325
v 0.164763 0.419778 0.148325
v 0.194763 0.000000 0.061402
v 0.164763 0.030000 0.061402
v 0.194763 0.030000 0.031402
v 0.194763 0.449778 0.061402
v 0.194763 0.419778 0.031402
v 0.164763 0.419778 0.061402
v 0.294926 0.000000 0.148325
v 0.324926 0.030000 0.148325
v 0.294926 0.030000 0.178325
v 0.294926 0.449778 0.148325
v 0.294926 0.419778 0.178325
v 0.324926 0.419778 0.148325
v 0.294926 0.000000 0.061402
v 0.294926 0.030000 0.031402
v 0.324926 0.030000 0.061402
v 0.294926 0.449778 0.061402
v 0.324926 0.419778 0.061402
v 0.294926 0.419778 0.031402
v 0.068825 0.000000 0.269598
v 0.068825 0.030000 0.239598
v 0.098825 0.030000 0.269598
v 0.068825 0.578926 0.239598
v 0.068825 0.608926 0.269598
v 0.098825 0.578926 0.269598
v 0.068825 0.000000 0.361670
v 0.098825 0.030000 0.361670
v 0.068825 0.030000 0.391670
v 0.068825 0.608926 0.361670
v 0.068825 0.578926 0.391670
v 0.098825 0.578926 0.361670
v -0.021112 0.000000 0.269598
v -0.051112 0.030000 0.269598
v -0.021112 0.030000 0.239598
v -0.021112 0.608926 0.269598
v -0.021112 0.578926 0.239598
v -0.051112 0.578926 0.269598
v -0.021112 0.000000 0.361670
v -0.021112 0.030000 0.391670
v -0.051112 0.030000 0.361670
v -0.021112 0.608926 0.361670
v -0.051112 0.578926 0.361670
v -0.021112 0.578926 0.391670
v -0.194856 0.000000 0.234995
v -0.194856 0.030000 0.204995
v -0.164856 0.030000 0.234995
v -0.194856 0.736997 0.204995
v -0.194856 0.766997 0.234995
v -0.164856 0.736997 0.234995
v -0.194856 0.000000 0.354607
v -0.164856 0.030000 0.354607
v -0.194856 0.030000 0.384607
v -0.194856 0.766997 0.354607
v -0.194856 0.736997 0.384607
v -0.164856 0.736997 0.354607
v -0.295269 0.000000 0.234995
v -0.325269 0.030000 0.234995
v -0.295269 0.030000 0.204994
v -0.295269 0.766997 0.234995
v -0.295269 0.736997 0.204994
v -0.325269 0.736997 0.234995
v -0.295269 0.000000 0.354606
v -0.295269 0.030000 0.384606
v -0.325269 0.030000 0.354606
v -0.295269 0.766997 0.354606
v -0.325269 0.736997 0.354606
v -0.295269 0.736997 0.384606
v 0.271797 0.000000 -0.270826
v 0.271797 0.030000 -0.300826
v 0.301797 0.030000 -0.270826
v 0.271797 0.757485 -0.300826
v 0.271797 0.787485 -0.270826
v 0.301797 0.757485 -0.270826
v 0.271797 0.000000 -0.151214
v 0.301797 0.030000 -0.151214
v 0.271797 0.030000 -0.121214
v 0.271797 0.787485 -0.151214
v 0.271797 0.757485 -0.121214
v 0.301797 0.757485 -0.151214
v 0.136000 0.000000 -0.270826
v 0.106000 0.030000 -0.270826
v 0.136000 0.030000 -0.300826
v 0.136000 0.787485 -0.270826
v 0.136000 0.757485 -0.300826
v 0.106000 0.757485 -0.270826
v 0.136000 0.000000 -0.151214
v 0.136000 0.030000 -0.121214
v 0.106000 0.030000 -0.151214
v 0.136000 0.787485 -0.151214
v 0.106000 0.757485 -0.151214
v 0.136000 0.757485 -0.121214
vt 0.017889 0.854995
vt 0.017889 0.854995
vt 0.017889 0.854995
vt 0.017889 0.854995
vt 0.017889 0.854995
vt 0.017889 0.854995
vt 0.017889 0.854995
vt 0.017889 0.854995
vt 0.017889 0.854995
vt 0.017889 0.854995
vt 0.017889 0.854995
vt 0.017889 0.854995
vt 0.017889 0.854995
vt 0.017889 0.854995
vt 0.017889 0.854995
vt 0.017889 0.854995
vt 0.017889 0.854995
vt 0.017889 0.854995
vt 0.017889 0.854995
vt 0.017889 0.854995
vt 0.017889 0.854995
vt 0.017889 0.854995
vt 0.017889 0.854995
vt 0.017889 0.854995
vt 0.017889 0.854995
vt 0.017889 0.854995
vt 0.017889 0.854995
vt 0.017889 0.854995
vt 0.017889 0.854995
vt 0.017889 0.854995
vt 0.017889 0.854995
vt 0.017889 0.854995
vt 0.017889 0.854995
vt 0.017889 0.854995
vt 0.017889 0.854995
vt 0.017889 0.854995
vt 0.017889 0.854995
vt 0.017889 0.854995
vt 0.017889 0.854995
vt 0.017889 0.854995
vt 0.017889 0.854995
vt 0.017889 0.854995
vt 0.017889 0.854995
vt 0.017889 0.854995
vt 0.017889 0.854995
vt 0.017889 0.854995
vt 0.017889 0.854995
vt 0.017889 0.854995
vt 0.017889 0.854995
vt 0.017889 0.854995
vt 0.017889 0.854995
vt 0.017889 0.854995
vt 0.017889 0.854995
vt 0.017889 0.854995
vt 0.017889 0.854995
vt 0.017889 0.854995
vt 0.017889 0.854995
vt 0.017889 0.854995
vt 0.017889 0.854995
vt 0.017889 0.854995
vt 0.017889 0.854995
vt 0.017889 0.854995
vt 0.017889 0.854995
vt 0.017889 0.854995
vt 0.017889 0.854995
vt 0.017889 0.854995
vt 0.017889 0.854995
vt 0.017889 0.854995
vt 0.017889 0.854995
vt 0.017889 0.854995
vt 0.017889 0.854995
vt 0.017889 0.854995
vt 0.017889 0.854995
vt 0.017889 0.854995
vt 0.017889 0.854995
vt 0.017889 0.854995
vt 0.017889 0.854995
vt 0.017889 0.854995
vt 0.017889 0.854995
vt 0.017889 0.854995
vt 0.017889 0.854995
vt 0.017889 0.854995
vt 0.017889 0.854995
vt 0.017889 0.854995
vt 0.017889 0.854995
vt 0.017889 0.854995
vt 0.017889 0.854995
vt 0.017889 0.854995
vt 0.017889 0.854995
vt 0.017889 0.854995
vt 0.017889 0.854995
vt 0.017889 0.854995
vt 0.017889 0.854995
vt 0.017889 0.854995
vt 0.017889 0.854995
vt 0.017889 0.854995
vt 0.017889 0.854995
vt 0.017889 0.854995
vt 0.017889 0.854995
vt 0.017889 0.854995
vt 0.017889 0.854995
vt 0.017889 0.854995
vt 0.017889 0.854995
vt 0.017889 0.854995
vt 0.017889 0.854995
vt 0.017889 0.854995
vt 0.017889 0.854995
vt 0.017889 0.854995
vt 0.017889 0.854995
vt 0.017889 0.854995
vt 0.017889 0.854995
vt 0.017889 0.854995
vt 0.017889 0.854995
vt 0.017889 0.854995
vt 0.017889 0.854995
vt 0.017889 0.854995
vt 0.017889 0.854995
vt 0.017889 0.854995
vt 0.017889 0.854995
vt 0.017889 0.854995
vt 0.017889 0.854995
vt 0.017889 0.854995
vt 0.017889 0.854995
vt 0.017889 0.854995
vt 0.017889 0.854995
vt 0.017889 0.854995
vt 0.017889 0.854995
vt 0.017889 0.854995
vt 0.017889 0.854995
vt 0.017889 0.854995
vt 0.017889 0.854995
vt 0.017889 0.854995
vt 0.017889 0.854995
vt 0.017889 0.854995
vt 0.017889 0.854995
vt 0.017889 0.854995
vt 0.017889 0.854995
vt 0.017889 0.854995
vt 0.017889 0.854995
vt 0.017889 0.854995
vt 0.017889 0.854995
vt 0.017889 0.854995
vt 0.017889 0.854995
vt 0.017889 0.854995
vn 0.0000 0.0000 1.0000
vn 1.0000 -0.0000 0.0000
vn 0.0000 -1.0000 0.0000
vn 0.0000 1.0000 0.0000
vn -1.0000 0.0000 0.0000
vn 0.0000 0.0000 -1.0000
vn -0.4606 -0.7588 0.4606
vn -0.4606 -0.4606 0.7588
vn -0.7588 -0.4606 0.4606
vn -0.4606 0.4606 0.7588
vn -0.4606 0.7588 0.4606
vn -0.7588 0.4606 0.4606
vn -0.4606 -0.7588 -0.4606
vn -0.7588 -0.4606 -0.4606
vn -0.4606 -0.4606 -0.7588
vn -0.4606 0.7588 -0.4606
vn -0.4606 0.4606 -0.7588
vn -0.7588 0.4606 -0.4606
vn 0.4606 -0.7588 0.4606
vn 0.7588 -0.4606 0.4606
vn 0.4606 -0.4606 0.7588
vn 0.4606 0.7588 0.4606
vn 0.4606 0.4606 0.7588
vn 0.7588 0.4606 0.4606
vn 0.4606 -0.7588 -0.4606
vn 0.4606 -0.4606 -0.7588
vn 0.7588 -0.4606 -0.4606
vn 0.4606 0.7588 -0.4606
vn 0.7588 0.4606 -0.4606
vn 0.4606 0.4606 -0.7588
usemtl Atlas
s 1
f 15/1/1 17/2/1 4/3/1 2/4/1
f 21/5/2 23/6/2 18/7/2 14/8/2
f 31/9/3 43/10/3 37/11/3 25/12/3
f 22/13/4 10/14/4 5/15/4 16/16/4
f 3/17/5 6/18/5 12/19/5 8/20/5
f 9/21/6 11/22/6 24/23/6 20/24/6
f 39/25/1 41/26/1 28/27/1 26/28/1
f 45/29/2 47/30/2 42/31/2 38/32/2
f 55/33/3 67/34/3 61/35/3 49/36/3
f 46/37/4 34/38/4 29/39/4 40/40/4
f 27/41/5 30/42/5 36/43/5 32/44/5
f 33/45/6 35/46/6 48/47/6 44/48/6
f 63/49/1 65/50/1 52/51/1 50/52/1
f 69/53/2 71/54/2 66/55/2 62/56/2
f 79/57/3 91/58/3 85/59/3 73/60/3
f 70/61/4 58/62/4 53/63/4 64/64/4
f 51/65/5 54/66/5 60/67/5 56/68/5
f 57/69/6 59/70/6 72/71/6 68/72/6
f 87/73/6 89/74/6 76/75/6 74/76/6
f 93/77/5 95/78/5 90/79/5 86/80/5
f 103/81/3 115/82/3 109/83/3 97/84/3
f 94/85/4 82/86/4 77/87/4 88/88/4
f 75/89/2 78/90/2 84/91/2 80/92/2
f 81/93/1 83/94/1 96/95/1 92/96/1
f 111/97/6 113/98/6 100/99/6 98/100/6
f 117/101/5 119/102/5 114/103/5 110/104/5
f 127/105/3 139/106/3 133/107/3 121/108/3
f 118/109/4 106/110/4 101/111/4 112/112/4
f 99/113/2 102/114/2 108/115/2 104/116/2
f 105/117/1 107/118/1 120/119/1 116/120/1
f 135/121/6 137/122/6 124/123/6 122/124/6
f 141/125/5 143/126/5 138/127/5 134/128/5
f 142/129/4 130/130/4 125/131/4 136/132/4
f 123/133/2 126/134/2 132/135/2 128/136/2
f 129/137/1 131/138/1 144/139/1 140/140/1
f 1/141/7 2/4/8 3/17/9
f 4/3/10 5/15/11 6/18/12
f 7/142/13 8/20/14 9/21/15
f 10/14/16 11/22/17 12/19/18
f 13/143/19 14/8/20 15/1/21
f 16/16/22 17/2/23 18/7/24
f 19/144/25 20/24/26 21/5/27
f 22/13/28 23/6/29 24/23/30
f 25/12/7 26/28/8 27/41/9
f 28/27/10 29/39/11 30/42/12
f 31/9/13 32/44/14 33/45/15
f 34/38/16 35/46/17 36/43/18
f 37/11/19 38/32/20 39/25/21
f 40/40/22 41/26/23 42/31/24
f 43/10/25 44/48/26 45/29/27
f 46/37/28 47/30/29 48/47/30
f 49/36/7 50/52/8 51/65/9
f 52/51/10 53/63/11 54/66/12
f 55/33/13 56/68/14 57/69/15
f 58/62/16 59/70/17 60/67/18
f 61/35/19 62/56/20 63/49/21
f 64/64/22 65/50/23 66/55/24
f 67/34/25 68/72/26 69/53/27
f 70/61/28 71/54/29 72/71/30
f 73/60/25 74/76/26 75/89/27
f 76/75/30 77/87/28 78/90/29
f 79/57/19 80/92/20 81/93/21
f 82/86/22 83/94/23 84/91/24
f 85/59/13 86/80/14 87/73/15
f 88/88/16 89/74/17 90/79/18
f 91/58/7 92/96/8 93/77/9
f 94/85/11 95/78/12 96/95/10
f 97/84/25 98/100/26 99/113/27
f 100/99/30 101/111/28 102/114/29
f 103/81/19 104/116/20 105/117/21
f 106/110/22 107/118/23 108/115/24
f 109/83/13 110/104/14 111/97/15
f 112/112/16 113/98/17 114/103/18
f 115/82/7 116/120/8 117/101/9
f 118/109/11 119/102/12 120/119/10
f 121/108/25 122/124/26 123/133/27
f 124/123/30 125/131/28 126/134/29
f 127/105/19 128/136/20 129/137/21
f 130/130/22 131/138/23 132/135/24
f 133/107/13 134/128/14 135/121/15
f 136/132/16 137/122/17 138/127/18
f 139/106/7 140/140/8 141/125/9
f 142/129/11 143/126/12 144/139/10
f 7/142/13 1/141/7 3/17/9 8/20/14
f 2/4/8 4/3/10 6/18/12 3/17/9
f 5/15/11 10/14/16 12/19/18 6/18/12
f 11/22/17 9/21/15 8/20/14 12/19/18
f 19/144/25 7/142/13 9/21/15 20/24/26
f 10/14/16 22/13/28 24/23/30 11/22/17
f 23/6/29 21/5/27 20/24/26 24/23/30
f 13/143/19 19/144/25 21/5/27 14/8/20
f 22/13/28 16/16/22 18/7/24 23/6/29
f 17/2/23 15/1/21 14/8/20 18/7/24
f 1/141/7 13/143/19 15/1/21 2/4/8
f 16/16/22 5/15/11 4/3/10 17/2/23
f 31/9/13 25/12/7 27/41/9 32/44/14
f 26/28/8 28/27/10 30/42/12 27/41/9
f 29/39/11 34/38/16 36/43/18 30/42/12
f 35/46/17 33/45/15 32/44/14 36/43/18
f 43/10/25 31/9/13 33/45/15 44/48/26
f 34/38/16 46/37/28 48/47/30 35/46/17
f 47/30/29 45/29/27 44/48/26 48/47/30
f 37/11/19 43/10/25 45/29/27 38/32/20
f 46/37/28 40/40/22 42/31/24 47/30/29
f 41/26/23 39/25/21 38/32/20 42/31/24
f 25/12/7 37/11/19 39/25/21 26/28/8
f 40/40/22 29/39/11 28/27/10 41/26/23
f 55/33/13 49/36/7 51/65/9 56/68/14
f 50/52/8 52/51/10 54/66/12 51/65/9
f 53/63/11 58/62/16 60/67/18 54/66/12
f 59/70/17 57/69/15 56/68/14 60/67/18
f 67/34/25 55/33/13 57/69/15 68/72/26
f 58/62/16 70/61/28 72/71/30 59/70/17
f 71/54/29 69/53/27 68/72/26 72/71/30
f 61/35/19 67/34/25 69/53/27 62/56/20
f 70/61/28 64/64/22 66/55/24 71/54/29
f 65/50/23 63/49/21 62/56/20 66/55/24
f 49/36/7 61/35/19 63/49/21 50/52/8
f 64/64/22 53/63/11 52/51/10 65/50/23
f 79/57/19 73/60/25 75/89/27 80/92/20
f 74/76/26 76/75/30 78/90/29 75/89/27
f 77/87/28 82/86/22 84/91/24 78/90/29
f 83/94/23 81/93/21 80/92/20 84/91/24
f 91/58/7 79/57/19 81/93/21 92/96/8
f 82/86/22 94/85/11 96/95/10 83/94/23
f 95/78/12 93/77/9 92/96/8 96/95/10
f 85/59/13 91/58/7 93/77/9 86/80/14
f 94/85/11 88/88/16 90/79/18 95/78/12
f 89/74/17 87/73/15 86/80/14 90/79/18
f 73/60/25 85/59/13 87/73/15 74/76/26
f 88/88/16 77/87/28 76/75/30 89/74/17
f 103/81/19 97/84/25 99/113/27 104/116/20
f 98/100/26 100/99/30 102/114/29 99/113/27
f 101/111/28 106/110/22 108/115/24 102/114/29
f 107/118/23 105/117/21 104/116/20 108/115/24
f 115/82/7 103/81/19 105/117/21 116/120/8
f 106/110/22 118/109/11 120/119/10 107/118/23
f 119/102/12 117/101/9 116/120/8 120/119/10
f 109/83/13 115/82/7 117/101/9 110/104/14
f 118/109/11 112/112/16 114/103/18 119/102/12
f 113/98/17 111/97/15 110/104/14 114/103/18
f 97/84/25 109/83/13 111/97/15 98/100/26
f 112/112/16 101/111/28 100/99/30 113/98/17
f 127/105/19 121/108/25 123/133/27 128/136/20
f 122/124/26 124/123/30 126/134/29 123/133/27
f 125/131/28 130/130/22 132/135/24 126/134/29
f 131/138/23 129/137/21 128/136/20 132/135/24
f 139/106/7 127/105/19 129/137/21 140/140/8
f 130/130/22 142/129/11 144/139/10 131/138/23
f 143/126/12 141/125/9 140/140/8 144/139/10
f 133/107/13 139/106/7 141/125/9 134/128/14
f 142/129/11 136/132/16 138/127/18 143/126/12
f 137/122/17 135/121/15 134/128/14 138/127/18
f 121/108/25 133/107/13 135/121/15 122/124/26
f 136/132/16 125/131/28 124/123/30 137/122/17
f 7/142/3 19/144/3 13/143/3 1/141/3
