# Blender v3.0.0 OBJ File: 'Rail_Incline.blend'
# www.blender.org
mtllib Rail_Incline.mtl
o Rail_Incline_Cube.556
v 1.000001 2.115912 0.404314
v 0.293064 1.237062 0.600000
v 0.293064 1.237062 -0.600000
v 1.000001 1.994352 0.404314
v 0.207108 1.323018 0.600000
v 0.207108 1.323018 -0.600000
v 0.293064 1.237062 0.404315
v 1.000001 2.115912 0.600000
v 0.293064 1.237062 -0.404314
v 0.207108 1.323018 0.404315
v 1.000001 1.994352 0.600000
v 0.207108 1.323018 -0.404314
v -0.999999 -0.005648 0.600000
v -0.999999 -0.005648 -0.600000
v -0.999999 0.115912 0.600000
v -0.999999 0.115912 -0.600000
v -0.999999 -0.005648 0.404314
v -0.999999 -0.005648 -0.404314
v -0.999999 0.115912 0.404314
v -0.999999 0.115912 -0.404314
v -0.646570 0.284827 0.736922
v -0.463907 0.467490 0.736922
v -0.706539 0.344796 0.736922
v -0.523876 0.527459 0.736922
v -0.646570 0.284827 -0.736922
v -0.646570 0.284827 0.000000
v -0.463907 0.467490 -0.736922
v -0.463907 0.467490 0.000000
v -0.706539 0.344796 0.000000
v -0.706539 0.344796 -0.736922
v -0.523876 0.527459 0.000000
v -0.523876 0.527459 -0.736922
v 1.000001 1.994352 -0.600000
v 1.000001 2.115912 -0.600000
v 1.000001 1.994352 -0.404314
v 1.000001 2.115912 -0.404314
v 0.771134 1.698131 0.736923
v 0.064026 0.991024 0.736922
v 0.953797 1.880794 0.736923
v 0.246690 1.173687 0.736922
v 0.711165 1.758100 0.736923
v 0.004057 1.050994 0.736922
v 0.893828 1.940763 0.736923
v 0.186721 1.233657 0.736922
v 0.771134 1.698131 -0.736922
v 0.064027 0.991025 -0.736922
v 0.771134 1.698131 0.000000
v 0.064027 0.991024 0.000000
v 0.953797 1.880794 -0.736922
v 0.246690 1.173688 -0.736922
v 0.953797 1.880794 0.000000
v 0.246690 1.173687 0.000000
v 0.711165 1.758100 0.000000
v 0.711165 1.758100 -0.736922
v 0.004058 1.050994 0.000000
v 0.004058 1.050994 -0.736922
v 0.893828 1.940763 0.000000
v 0.893828 1.940763 -0.736922
v 0.186721 1.233657 0.000000
v 0.186721 1.233657 -0.736922
vt 0.014649 0.828125
vt 0.014649 0.828125
vt 0.014649 0.828125
vt 0.014649 0.828125
vt 0.014649 0.828125
vt 0.014649 0.828125
vt 0.014649 0.828125
vt 0.014649 0.828125
vt 0.014649 0.828125
vt 0.014649 0.828125
vt 0.014649 0.828125
vt 0.014649 0.828125
vt 0.014649 0.828125
vt 0.014649 0.828125
vt 0.014649 0.828125
vt 0.014649 0.828125
vt 0.014649 0.828125
vt 0.014649 0.828125
vt 0.014649 0.828125
vt 0.014649 0.828125
vt 0.014649 0.828125
vt 0.014649 0.828125
vt 0.044922 0.825195
vt 0.044922 0.825195
vt 0.044922 0.825195
vt 0.044922 0.825195
vt 0.044922 0.825195
vt 0.044922 0.825195
vt 0.044922 0.825195
vt 0.044922 0.825195
vt 0.044922 0.825195
vt 0.044922 0.825195
vt 0.044922 0.825195
vt 0.044922 0.825195
vt 0.014649 0.828125
vt 0.014649 0.828125
vt 0.044922 0.825195
vt 0.044922 0.825195
vt 0.044922 0.825195
vt 0.044922 0.825195
vt 0.044922 0.825195
vt 0.044922 0.825195
vt 0.044922 0.825195
vt 0.044922 0.825195
vt 0.044922 0.825195
vt 0.044922 0.825195
vt 0.044922 0.825195
vt 0.044922 0.825195
vt 0.044922 0.825195
vt 0.044922 0.825195
vt 0.044922 0.825195
vt 0.044922 0.825195
vt 0.044922 0.825195
vt 0.044922 0.825195
vt 0.044922 0.825195
vt 0.044922 0.825195
vt 0.044922 0.825195
vt 0.044922 0.825195
vt 0.044922 0.825195
vt 0.044922 0.825195
vn 0.7310 -0.6824 0.0000
vn -0.0000 -0.0000 -1.0000
vn -0.7071 0.7071 0.0000
vn -0.0000 0.0000 1.0000
vn 0.6929 -0.7210 0.0000
vn 0.7071 -0.7071 0.0000
vn 0.7071 0.7071 0.0000
vn -0.7071 -0.7071 -0.0000
usemtl Atlas
s off
f 7/1/1 4/2/1 11/3/1 2/4/1
f 10/5/2 1/6/2 4/2/2 7/1/2
f 34/7/3 6/8/3 12/9/3 36/10/3
f 1/6/3 10/5/3 5/11/3 8/12/3
f 14/13/2 16/14/2 6/8/2 3/15/2
f 18/16/4 9/17/4 12/9/4 20/18/4
f 14/13/5 3/15/5 9/17/5 18/16/5
f 6/8/3 16/14/3 20/18/3 12/9/3
f 17/19/5 7/1/5 2/4/5 13/20/5
f 10/5/3 19/21/3 15/22/3 5/11/3
f 19/21/2 10/5/2 7/1/2 17/19/2
f 13/20/4 2/4/4 5/11/4 15/22/4
f 21/23/6 26/24/6 28/25/6 22/26/6
f 23/27/3 24/28/3 31/29/3 29/30/3
f 28/25/7 31/29/7 24/28/7 22/26/7
f 21/23/8 23/27/8 29/30/8 26/24/8
f 22/26/4 24/28/4 23/27/4 21/23/4
f 25/31/6 27/32/6 28/25/6 26/24/6
f 30/33/3 29/30/3 31/29/3 32/34/3
f 28/25/7 27/32/7 32/34/7 31/29/7
f 25/31/8 26/24/8 29/30/8 30/33/8
f 27/32/2 25/31/2 30/33/2 32/34/2
f 2/4/4 11/3/4 8/12/4 5/11/4
f 3/15/1 33/35/1 35/36/1 9/17/1
f 9/17/4 35/36/4 36/10/4 12/9/4
f 3/15/2 6/8/2 34/7/2 33/35/2
f 38/37/6 48/38/6 52/39/6 40/40/6
f 37/41/6 47/42/6 51/43/6 39/44/6
f 42/45/3 44/46/3 59/47/3 55/48/3
f 41/49/3 43/50/3 57/51/3 53/52/3
f 51/43/7 57/51/7 43/50/7 39/44/7
f 37/41/8 41/49/8 53/52/8 47/42/8
f 52/39/7 59/47/7 44/46/7 40/40/7
f 38/37/8 42/45/8 55/48/8 48/38/8
f 39/44/4 43/50/4 41/49/4 37/41/4
f 40/40/4 44/46/4 42/45/4 38/37/4
f 46/53/6 50/54/6 52/39/6 48/38/6
f 45/55/6 49/56/6 51/43/6 47/42/6
f 56/57/3 55/48/3 59/47/3 60/58/3
f 54/59/3 53/52/3 57/51/3 58/60/3
f 51/43/7 49/56/7 58/60/7 57/51/7
f 45/55/8 47/42/8 53/52/8 54/59/8
f 52/39/7 50/54/7 60/58/7 59/47/7
f 46/53/8 48/38/8 55/48/8 56/57/8
f 49/56/2 45/55/2 54/59/2 58/60/2
f 50/54/2 46/53/2 56/57/2 60/58/2
