# Blender v3.0.0 OBJ File: 'Rail_Corner.blend'
# www.blender.org
mtllib Rail_Corner.mtl
o Rail_Corner_Cube.551
v 1.000001 -0.005650 -0.600000
v 1.000001 -0.005650 0.600000
v 1.000001 0.115911 -0.600000
v 1.000001 0.115911 0.600000
v 1.000001 -0.005650 0.404314
v 1.000001 -0.005650 -0.404314
v 1.000001 0.115911 0.404314
v 1.000001 0.115911 -0.404314
v 0.600001 -0.005650 1.000000
v -0.599999 -0.005649 1.000000
v 0.600001 0.115911 1.000000
v -0.599999 0.115911 1.000000
v 0.404315 -0.005649 1.000000
v -0.404314 -0.005649 1.000000
v 0.404315 0.115911 1.000000
v -0.404314 0.115911 1.000000
v 0.636744 -0.014560 0.958582
v 0.710821 -0.014560 0.711107
v 0.636744 0.070249 0.958582
v 0.710821 0.070249 0.711107
v -0.775203 -0.014559 0.535944
v -0.069230 -0.014560 0.747263
v -0.701126 -0.014559 0.288468
v 0.004847 -0.014560 0.499787
v -0.069230 0.070249 0.747263
v -0.775203 0.070250 0.535944
v 0.004847 0.070249 0.499787
v -0.701126 0.070250 0.288468
v 0.600001 -0.005650 0.859274
v 0.600001 0.115911 0.859274
v 0.404451 0.115911 0.859274
v 0.404451 -0.005649 0.859274
v 0.865513 -0.005650 0.599909
v 0.865513 0.115911 0.599909
v 0.865513 -0.005650 0.404252
v 0.865513 0.115911 0.404252
v 0.634403 -0.005650 0.769040
v 0.792085 -0.005650 0.623247
v 0.634403 0.115911 0.769040
v 0.792085 0.115911 0.623247
v 0.626465 -0.005650 0.483287
v 0.475575 -0.005649 0.634820
v 0.626466 0.115911 0.483287
v 0.475575 0.115911 0.634820
v -0.410212 -0.005649 -0.183681
v -0.183331 -0.005649 -0.426513
v -0.183331 0.115911 -0.426513
v -0.410211 0.115911 -0.183681
v -0.057343 -0.005649 -0.282900
v -0.269208 -0.005649 -0.054741
v -0.269208 0.115911 -0.054741
v -0.057343 0.115911 -0.282900
v -0.598970 -0.005649 0.440051
v -0.559124 -0.005649 0.119322
v -0.598970 0.115911 0.440051
v -0.559124 0.115911 0.119322
v -0.374257 0.115911 0.151050
v -0.405341 0.115911 0.468725
v -0.374257 -0.005649 0.151050
v -0.405341 -0.005649 0.468725
v 0.159926 -0.005649 -0.557108
v 0.536720 -0.005649 -0.599311
v 0.536720 0.115911 -0.599311
v 0.159926 0.115911 -0.557108
v 0.563950 -0.005649 -0.404992
v 0.221057 -0.005649 -0.384596
v 0.221057 0.115911 -0.384596
v 0.563950 0.115911 -0.404992
v 0.716586 -0.014560 0.713172
v 0.961257 -0.014560 0.630301
v 0.716586 0.070249 0.713172
v 0.961257 0.070249 0.630301
v 0.243776 -0.014560 -0.682775
v 0.480181 -0.014560 0.015198
v 0.488447 -0.014560 -0.765646
v 0.724852 -0.014560 -0.067672
v 0.480181 0.070249 0.015198
v 0.243776 0.070249 -0.682775
v 0.724852 0.070249 -0.067672
v 0.488447 0.070249 -0.765646
vt 0.015625 0.828125
vt 0.015625 0.828125
vt 0.015625 0.828125
vt 0.015625 0.828125
vt 0.015625 0.828125
vt 0.015625 0.828125
vt 0.015625 0.828125
vt 0.015625 0.828125
vt 0.015625 0.828125
vt 0.015625 0.828125
vt 0.015625 0.828125
vt 0.015625 0.828125
vt 0.015625 0.828125
vt 0.015625 0.828125
vt 0.015625 0.828125
vt 0.015625 0.828125
vt 0.015625 0.828125
vt 0.015625 0.828125
vt 0.015625 0.828125
vt 0.015625 0.828125
vt 0.015625 0.828125
vt 0.015625 0.828125
vt 0.015625 0.828125
vt 0.015625 0.828125
vt 0.015625 0.828125
vt 0.015625 0.828125
vt 0.015625 0.828125
vt 0.015625 0.828125
vt 0.015625 0.828125
vt 0.015625 0.828125
vt 0.015625 0.828125
vt 0.015625 0.828125
vt 0.015625 0.828125
vt 0.015625 0.828125
vt 0.015625 0.828125
vt 0.015625 0.828125
vt 0.015625 0.828125
vt 0.015625 0.828125
vt 0.015625 0.828125
vt 0.015625 0.828125
vt 0.015625 0.828125
vt 0.015625 0.828125
vt 0.015625 0.828125
vt 0.015625 0.828125
vt 0.015625 0.828125
vt 0.015625 0.828125
vt 0.015625 0.828125
vt 0.015625 0.828125
vt 0.015625 0.828125
vt 0.015625 0.828125
vt 0.015625 0.828125
vt 0.015625 0.828125
vt 0.015625 0.828125
vt 0.015625 0.828125
vt 0.015625 0.828125
vt 0.015625 0.828125
vt 0.045899 0.831055
vt 0.045899 0.831055
vt 0.045899 0.831055
vt 0.045899 0.831055
vt 0.045899 0.831055
vt 0.045899 0.831055
vt 0.045899 0.831055
vt 0.045899 0.831055
vt 0.045899 0.831055
vt 0.045899 0.831055
vt 0.045899 0.831055
vt 0.045899 0.831055
vt 0.045899 0.831055
vt 0.045899 0.831055
vt 0.045899 0.831055
vt 0.045899 0.831055
vt 0.045899 0.831055
vt 0.045899 0.831055
vt 0.045899 0.831055
vt 0.045899 0.831055
vt 0.045899 0.831055
vt 0.045899 0.831055
vt 0.045899 0.831055
vt 0.045899 0.831055
vn -0.5576 0.0000 -0.8301
vn -0.2353 -0.0000 -0.9719
vn 0.5533 -0.0000 0.8330
vn 0.2034 -0.0000 0.9791
vn -0.0000 -1.0000 -0.0000
vn 1.0000 -0.0000 0.0000
vn -0.1587 -0.0000 -0.9873
vn 0.0005 -0.0000 -1.0000
vn 0.1529 -0.0000 0.9882
vn -0.0007 0.0000 1.0000
vn 0.0000 1.0000 -0.0000
vn 1.0000 -0.0000 -0.0019
vn 0.9989 -0.0000 0.0478
vn 0.0000 0.0000 1.0000
vn 0.5029 -0.0000 0.8643
vn -0.0565 -0.0000 -0.9984
vn -0.0015 0.0000 -1.0000
vn 0.0289 -0.0000 0.9996
vn -0.0016 0.0000 1.0000
vn 0.9835 -0.0000 0.1811
vn -1.0000 0.0000 -0.0010
vn -0.9882 0.0000 -0.1533
vn -0.5256 -0.0000 -0.8507
vn 0.8285 -0.0000 0.5600
vn -0.8551 0.0000 -0.5185
vn -0.9582 0.0000 -0.2861
vn -0.8230 0.0000 -0.5680
vn 0.9597 -0.0000 0.2809
vn 0.8195 -0.0000 0.5730
vn -0.9980 0.0000 -0.0627
vn -1.0000 0.0000 -0.0018
vn 0.2868 -0.0000 -0.9580
vn -0.2868 0.0000 0.9580
vn 0.9580 -0.0000 0.2868
vn -0.9580 0.0000 -0.2868
vn 0.9471 -0.0000 -0.3208
vn -0.9471 0.0000 0.3208
vn 0.3208 0.0000 0.9471
vn -0.3208 0.0000 -0.9471
usemtl Material.002
s 1
f 46/1/1 47/2/1 64/3/2 61/4/2
f 49/5/3 66/6/4 67/7/4 52/8/3
f 46/1/5 61/4/5 66/6/5 49/5/5
f 2/9/6 5/10/6 7/11/6 4/12/6
f 1/13/6 3/14/6 8/15/6 6/16/6
f 35/17/5 5/10/5 2/9/5 33/18/5
f 36/19/7 7/11/8 5/10/8 35/17/7
f 33/18/9 2/9/10 4/12/10 34/20/9
f 44/21/11 31/22/11 30/23/11 39/24/11
f 14/25/12 60/26/13 58/27/13 16/28/12
f 11/29/14 15/30/14 13/31/14 9/32/14
f 12/33/14 10/34/14 14/25/14 16/28/14
f 48/35/11 56/36/11 57/37/11 51/38/11
f 31/22/11 15/30/11 11/29/11 30/23/11
f 38/39/15 33/18/9 34/20/9 40/40/15
f 36/19/11 43/41/11 40/40/11 34/20/11
f 62/42/16 63/43/16 3/14/17 1/13/17
f 65/44/18 6/16/19 8/15/19 68/45/18
f 9/32/6 29/46/20 30/23/20 11/29/6
f 15/30/21 31/22/22 32/47/22 13/31/21
f 13/31/5 32/47/5 29/46/5 9/32/5
f 43/41/23 36/19/7 35/17/7 41/48/23
f 7/11/11 36/19/11 34/20/11 4/12/11
f 29/46/20 37/49/24 39/24/24 30/23/20
f 31/22/22 44/21/25 42/50/25 32/47/22
f 32/47/5 42/50/5 37/49/5 29/46/5
f 44/21/11 39/24/11 40/40/11 43/41/11
f 38/39/15 40/40/15 39/24/24 37/49/24
f 43/41/23 41/48/23 42/50/25 44/21/25
f 41/48/5 38/39/5 37/49/5 42/50/5
f 41/48/5 35/17/5 33/18/5 38/39/5
f 54/51/26 56/36/26 48/35/27 45/52/27
f 59/53/28 50/54/29 51/38/29 57/37/28
f 10/34/5 53/55/5 60/26/5 14/25/5
f 64/3/11 47/2/11 52/8/11 67/7/11
f 55/56/11 12/33/11 16/28/11 58/27/11
f 54/51/5 45/52/5 50/54/5 59/53/5
f 48/35/11 51/38/11 52/8/11 47/2/11
f 46/1/5 49/5/5 50/54/5 45/52/5
f 49/5/3 52/8/3 51/38/29 50/54/29
f 47/2/1 46/1/1 45/52/27 48/35/27
f 3/14/11 63/43/11 68/45/11 8/15/11
f 54/51/5 59/53/5 60/26/5 53/55/5
f 59/53/28 57/37/28 58/27/13 60/26/13
f 56/36/26 54/51/26 53/55/30 55/56/30
f 55/56/11 58/27/11 57/37/11 56/36/11
f 10/34/31 12/33/31 55/56/30 53/55/30
f 64/3/11 67/7/11 68/45/11 63/43/11
f 62/42/5 65/44/5 66/6/5 61/4/5
f 65/44/18 68/45/18 67/7/4 66/6/4
f 63/43/16 62/42/16 61/4/2 64/3/2
f 62/42/5 1/13/5 6/16/5 65/44/5
usemtl Atlas
f 17/57/5 22/58/5 24/59/5 18/60/5
f 19/61/11 20/62/11 27/63/11 25/64/11
f 24/59/32 27/63/32 20/62/32 18/60/32
f 17/57/33 19/61/33 25/64/33 22/58/33
f 18/60/34 20/62/34 19/61/34 17/57/34
f 21/65/5 23/66/5 24/59/5 22/58/5
f 26/67/11 25/64/11 27/63/11 28/68/11
f 24/59/32 23/66/32 28/68/32 27/63/32
f 21/65/33 22/58/33 25/64/33 26/67/33
f 23/66/35 21/65/35 26/67/35 28/68/35
f 69/69/5 74/70/5 76/71/5 70/72/5
f 71/73/11 72/74/11 79/75/11 77/76/11
f 76/71/36 79/75/36 72/74/36 70/72/36
f 69/69/37 71/73/37 77/76/37 74/70/37
f 70/72/38 72/74/38 71/73/38 69/69/38
f 73/77/5 75/78/5 76/71/5 74/70/5
f 78/79/11 77/76/11 79/75/11 80/80/11
f 76/71/36 75/78/36 80/80/36 79/75/36
f 73/77/37 74/70/37 77/76/37 78/79/37
f 75/78/39 73/77/39 78/79/39 80/80/39
