# Blender v3.0.0 OBJ File: 'Rail_Straight.blend'
# www.blender.org
mtllib Rail_Straight.mtl
o Rail_Straight_Cube.549
v 1.000001 -0.005650 -0.600000
v 1.000001 -0.005650 0.600000
v -0.999999 -0.005648 0.600000
v -0.999999 -0.005648 -0.600000
v 1.000001 0.115911 -0.600000
v 1.000001 0.115911 0.600000
v -0.999999 0.115912 0.600000
v -0.999999 0.115912 -0.600000
v 1.000001 -0.005650 0.404314
v -0.999999 -0.005648 0.404314
v 1.000001 -0.005650 -0.404314
v -0.999999 -0.005648 -0.404314
v 1.000001 0.115911 0.404314
v -0.999999 0.115912 0.404314
v 1.000001 0.115911 -0.404314
v -0.999999 0.115912 -0.404314
v 0.369354 -0.014560 0.736922
v -0.630646 -0.014559 0.736922
v 0.627678 -0.014560 0.736922
v -0.372322 -0.014560 0.736922
v 0.369354 0.070249 0.736922
v -0.630646 0.070250 0.736922
v 0.627678 0.070249 0.736922
v -0.372322 0.070250 0.736922
v 0.369354 -0.014560 -0.736922
v -0.630646 -0.014559 -0.736922
v 0.369354 -0.014560 0.000000
v -0.630646 -0.014559 -0.000000
v 0.627678 -0.014560 -0.736922
v -0.372322 -0.014560 -0.736922
v 0.627678 -0.014560 0.000000
v -0.372322 -0.014560 -0.000000
v 0.369354 0.070249 0.000000
v 0.369354 0.070249 -0.736922
v -0.630646 0.070250 -0.000000
v -0.630646 0.070250 -0.736922
v 0.627678 0.070249 0.000000
v 0.627678 0.070249 -0.736922
v -0.372322 0.070250 -0.000000
v -0.372322 0.070250 -0.736922
vt 0.014649 0.825195
vt 0.014649 0.825195
vt 0.014649 0.825195
vt 0.014649 0.825195
vt 0.014649 0.825195
vt 0.014649 0.825195
vt 0.014649 0.825195
vt 0.014649 0.825195
vt 0.014649 0.825195
vt 0.014649 0.825195
vt 0.014649 0.825195
vt 0.014649 0.825195
vt 0.014649 0.825195
vt 0.014649 0.825195
vt 0.014649 0.825195
vt 0.014649 0.825195
vt 0.046875 0.828125
vt 0.046875 0.828125
vt 0.046875 0.828125
vt 0.046875 0.828125
vt 0.046875 0.828125
vt 0.046875 0.828125
vt 0.046875 0.828125
vt 0.046875 0.828125
vt 0.046875 0.828125
vt 0.046875 0.828125
vt 0.046875 0.828125
vt 0.046875 0.828125
vt 0.046875 0.828125
vt 0.046875 0.828125
vt 0.046875 0.828125
vt 0.046875 0.828125
vt 0.046875 0.828125
vt 0.046875 0.828125
vt 0.046875 0.828125
vt 0.046875 0.828125
vt 0.046875 0.828125
vt 0.046875 0.828125
vt 0.046875 0.828125
vt 0.046875 0.828125
vn 0.0000 -0.0000 -1.0000
vn -0.0000 0.0000 1.0000
vn -0.0000 -1.0000 0.0000
vn -1.0000 0.0000 0.0000
vn 1.0000 -0.0000 0.0000
vn 0.0000 1.0000 0.0000
usemtl Material.002
s off
f 4/1/1 8/2/1 5/3/1 1/4/1
f 12/5/2 11/6/2 15/7/2 16/8/2
f 4/1/3 1/4/3 11/6/3 12/5/3
f 7/9/4 14/10/4 10/11/4 3/12/4
f 8/2/4 4/1/4 12/5/4 16/8/4
f 2/13/5 9/14/5 13/15/5 6/16/5
f 1/4/5 5/3/5 15/7/5 11/6/5
f 5/3/6 8/2/6 16/8/6 15/7/6
f 10/11/3 9/14/3 2/13/3 3/12/3
f 13/15/6 14/10/6 7/9/6 6/16/6
f 14/10/1 13/15/1 9/14/1 10/11/1
f 3/12/2 2/13/2 6/16/2 7/9/2
usemtl Atlas
f 18/17/3 28/18/3 32/19/3 20/20/3
f 17/21/3 27/22/3 31/23/3 19/24/3
f 22/25/6 24/26/6 39/27/6 35/28/6
f 21/29/6 23/30/6 37/31/6 33/32/6
f 31/23/5 37/31/5 23/30/5 19/24/5
f 17/21/4 21/29/4 33/32/4 27/22/4
f 32/19/5 39/27/5 24/26/5 20/20/5
f 18/17/4 22/25/4 35/28/4 28/18/4
f 19/24/2 23/30/2 21/29/2 17/21/2
f 20/20/2 24/26/2 22/25/2 18/17/2
f 26/33/3 30/34/3 32/19/3 28/18/3
f 25/35/3 29/36/3 31/23/3 27/22/3
f 36/37/6 35/28/6 39/27/6 40/38/6
f 34/39/6 33/32/6 37/31/6 38/40/6
f 31/23/5 29/36/5 38/40/5 37/31/5
f 25/35/4 27/22/4 33/32/4 34/39/4
f 32/19/5 30/34/5 40/38/5 39/27/5
f 26/33/4 28/18/4 35/28/4 36/37/4
f 29/36/1 25/35/1 34/39/1 38/40/1
f 30/34/1 26/33/1 36/37/1 40/38/1
