# Blender v3.0.0 OBJ File: 'Rock2.blend'
# www.blender.org
mtllib Rock2.mtl
o Rock2_Cube.089
v -0.553207 0.000000 0.283620
v -0.538287 0.058705 0.330405
v -0.599993 0.058705 0.268700
v -0.548531 0.017194 0.322576
v -0.581985 0.024812 0.312398
v -0.581613 0.058705 0.312026
v -0.592163 0.017194 0.278943
v -0.429249 0.535032 0.221366
v -0.417291 0.593737 0.147704
v -0.490954 0.535032 0.159661
v -0.420487 0.576543 0.194532
v -0.457428 0.568925 0.187841
v -0.464119 0.576543 0.150899
v -0.472574 0.535032 0.202987
v -0.553207 0.000000 -0.283620
v -0.599993 0.058705 -0.268700
v -0.538287 0.058705 -0.330405
v -0.592163 0.017194 -0.278943
v -0.581985 0.024812 -0.312398
v -0.581613 0.058705 -0.312026
v -0.548531 0.017194 -0.322576
v -0.417291 0.593737 -0.147704
v -0.429249 0.535032 -0.221367
v -0.490954 0.535032 -0.159661
v -0.420487 0.576543 -0.194532
v -0.457428 0.568925 -0.187841
v -0.472574 0.535032 -0.202987
v -0.464119 0.576543 -0.150899
v 0.014033 0.000000 0.283620
v 0.060818 0.058705 0.268700
v -0.000887 0.058705 0.330405
v 0.052988 0.017194 0.278943
v 0.042810 0.024812 0.312398
v 0.042439 0.058705 0.312026
v 0.009356 0.017194 0.322576
v -0.121883 0.593737 0.147704
v -0.109926 0.535032 0.221367
v -0.048221 0.535032 0.159661
v -0.118688 0.576543 0.194532
v -0.081746 0.568925 0.187841
v -0.066600 0.535032 0.202987
v -0.075056 0.576543 0.150899
v 0.014033 0.000000 -0.283620
v -0.000887 0.058705 -0.330405
v 0.060818 0.058705 -0.268700
v 0.009356 0.017194 -0.322576
v 0.042810 0.024812 -0.312398
v 0.042439 0.058705 -0.312026
v 0.052988 0.017194 -0.278943
v -0.121883 0.593737 -0.147704
v -0.048221 0.535032 -0.159661
v -0.109926 0.535032 -0.221366
v -0.075056 0.576543 -0.150899
v -0.081746 0.568925 -0.187841
v -0.066600 0.535032 -0.202987
v -0.118688 0.576543 -0.194532
v -0.217475 0.000000 0.505552
v -0.211328 0.059702 0.557868
v -0.271814 0.059936 0.497092
v -0.215620 0.017438 0.545934
v -0.249703 0.025283 0.536863
v -0.254044 0.059819 0.539952
v -0.258390 0.017603 0.502959
v -0.142904 0.756591 0.465561
v -0.137327 0.816294 0.397429
v -0.203436 0.756358 0.404847
v -0.138897 0.798855 0.442432
v -0.174519 0.791011 0.435438
v -0.181699 0.798691 0.399500
v -0.185643 0.756475 0.447677
v -0.217475 0.000000 -0.301716
v -0.271814 0.059936 -0.293256
v -0.211328 0.059702 -0.354032
v -0.258390 0.017603 -0.299124
v -0.249703 0.025283 -0.333027
v -0.254044 0.059819 -0.336117
v -0.215620 0.017438 -0.342099
v -0.137327 0.816294 -0.193593
v -0.142904 0.756591 -0.261725
v -0.203436 0.756358 -0.201011
v -0.138897 0.798855 -0.238596
v -0.174519 0.791011 -0.231602
v -0.185643 0.756475 -0.243841
v -0.181699 0.798691 -0.195664
v 0.614910 0.000000 0.505552
v 0.669249 0.059936 0.497092
v 0.608764 0.059702 0.557868
v 0.655826 0.017603 0.502959
v 0.647138 0.025283 0.536863
v 0.651479 0.059819 0.539952
v 0.613056 0.017438 0.545934
v 0.534762 0.816294 0.397429
v 0.540340 0.756591 0.465561
v 0.600871 0.756358 0.404847
v 0.536332 0.798855 0.442432
v 0.571955 0.791011 0.435438
v 0.583078 0.756475 0.447677
v 0.579134 0.798691 0.399500
v 0.614910 0.000000 -0.301716
v 0.608764 0.059702 -0.354032
v 0.669249 0.059936 -0.293256
v 0.613056 0.017438 -0.342098
v 0.647138 0.025283 -0.333027
v 0.651479 0.059819 -0.336117
v 0.655826 0.017603 -0.299124
v 0.534762 0.816294 -0.193593
v 0.600871 0.756358 -0.201011
v 0.540340 0.756591 -0.261725
v 0.579134 0.798691 -0.195664
v 0.571955 0.791011 -0.231602
v 0.583078 0.756475 -0.243841
v 0.536332 0.798855 -0.238596
v -0.382640 -0.000000 0.829093
v -0.367722 0.057431 0.871190
v -0.429144 0.058640 0.807805
v -0.378023 0.016571 0.867023
v -0.411359 0.024529 0.855534
v -0.410906 0.058036 0.851970
v -0.421454 0.017426 0.822203
v -0.279967 0.432508 0.752805
v -0.268011 0.489939 0.674454
v -0.341955 0.431299 0.690183
v -0.271147 0.473368 0.722845
v -0.308207 0.465410 0.716379
v -0.314979 0.472513 0.678565
v -0.323434 0.431903 0.733967
v -0.382640 -0.000000 0.057109
v -0.429144 0.058640 0.078398
v -0.367722 0.057431 0.015012
v -0.421454 0.017426 0.063999
v -0.411359 0.024529 0.030669
v -0.410906 0.058036 0.034232
v -0.378023 0.016571 0.019179
v -0.268011 0.489939 0.211748
v -0.279967 0.432508 0.133397
v -0.341955 0.431299 0.196020
v -0.271147 0.473368 0.163357
v -0.308207 0.465410 0.169823
v -0.323434 0.431903 0.152236
v -0.314979 0.472513 0.207638
v 0.541540 -0.000000 0.829093
v 0.588044 0.058640 0.807805
v 0.526623 0.057431 0.871190
v 0.580355 0.017426 0.822203
v 0.570259 0.024529 0.855534
v 0.569806 0.058036 0.851970
v 0.536923 0.016571 0.867023
v 0.426911 0.489939 0.674454
v 0.438867 0.432508 0.752805
v 0.500855 0.431299 0.690183
v 0.430048 0.473368 0.722845
v 0.467107 0.465410 0.716379
v 0.482334 0.431903 0.733967
v 0.473880 0.472513 0.678565
v 0.541540 -0.000000 0.057109
v 0.526623 0.057431 0.015012
v 0.588044 0.058640 0.078398
v 0.536923 0.016571 0.019179
v 0.570259 0.024529 0.030669
v 0.569806 0.058036 0.034232
v 0.580355 0.017426 0.063999
v 0.426911 0.489939 0.211748
v 0.500855 0.431299 0.196020
v 0.438867 0.432508 0.133397
v 0.473880 0.472513 0.207638
v 0.467107 0.465410 0.169823
v 0.482334 0.431903 0.152236
v 0.430048 0.473368 0.163357
vt 0.009766 0.826172
vt 0.009766 0.826172
vt 0.009766 0.826172
vt 0.009766 0.826172
vt 0.009766 0.826172
vt 0.009766 0.826172
vt 0.009766 0.826172
vt 0.009766 0.826172
vt 0.009766 0.826172
vt 0.009766 0.826172
vt 0.009766 0.826172
vt 0.009766 0.826172
vt 0.009766 0.826172
vt 0.009766 0.826172
vt 0.009766 0.826172
vt 0.009766 0.826172
vt 0.009766 0.826172
vt 0.009766 0.826172
vt 0.009766 0.826172
vt 0.009766 0.826172
vt 0.009766 0.826172
vt 0.009766 0.826172
vt 0.009766 0.826172
vt 0.009766 0.826172
vt 0.009766 0.826172
vt 0.009766 0.826172
vt 0.009766 0.826172
vt 0.009766 0.826172
vt 0.009766 0.826172
vt 0.009766 0.826172
vt 0.009766 0.826172
vt 0.009766 0.826172
vt 0.009766 0.826172
vt 0.009766 0.826172
vt 0.009766 0.826172
vt 0.009766 0.826172
vt 0.009766 0.826172
vt 0.009766 0.826172
vt 0.009766 0.826172
vt 0.009766 0.826172
vt 0.009766 0.826172
vt 0.009766 0.826172
vt 0.009766 0.826172
vt 0.009766 0.826172
vt 0.009766 0.826172
vt 0.009766 0.826172
vt 0.009766 0.826172
vt 0.009766 0.826172
vt 0.009766 0.826172
vt 0.009766 0.826172
vt 0.009766 0.826172
vt 0.009766 0.826172
vt 0.009766 0.826172
vt 0.009766 0.826172
vt 0.009766 0.826172
vt 0.009766 0.826172
vt 0.009766 0.826172
vt 0.009766 0.826172
vt 0.009766 0.826172
vt 0.009766 0.826172
vt 0.009766 0.826172
vt 0.009766 0.826172
vt 0.009766 0.826172
vt 0.009766 0.826172
vt 0.009766 0.826172
vt 0.009766 0.826172
vt 0.009766 0.826172
vt 0.009766 0.826172
vt 0.009766 0.826172
vt 0.009766 0.826172
vt 0.009766 0.826172
vt 0.009766 0.826172
vt 0.009766 0.826172
vt 0.009766 0.826172
vt 0.009766 0.826172
vt 0.009766 0.826172
vt 0.009766 0.826172
vt 0.009766 0.826172
vt 0.009766 0.826172
vt 0.009766 0.826172
vt 0.009766 0.826172
vt 0.009766 0.826172
vt 0.009766 0.826172
vt 0.009766 0.826172
vt 0.009766 0.826172
vt 0.009766 0.826172
vt 0.009766 0.826172
vt 0.009766 0.826172
vt 0.009766 0.826172
vt 0.009766 0.826172
vt 0.009766 0.826172
vt 0.009766 0.826172
vt 0.009766 0.826172
vt 0.009766 0.826172
vt 0.009766 0.826172
vt 0.009766 0.826172
vt 0.009766 0.826172
vt 0.009766 0.826172
vt 0.009766 0.826172
vt 0.009766 0.826172
vt 0.009766 0.826172
vt 0.009766 0.826172
vt 0.009766 0.826172
vt 0.009766 0.826172
vt 0.009766 0.826172
vt 0.009766 0.826172
vt 0.009766 0.826172
vt 0.009766 0.826172
vt 0.009766 0.826172
vt 0.009766 0.826172
vt 0.009766 0.826172
vt 0.009766 0.826172
vt 0.009766 0.826172
vt 0.009766 0.826172
vt 0.009766 0.826172
vt 0.009766 0.826172
vt 0.009766 0.826172
vt 0.009766 0.826172
vt 0.009766 0.826172
vt 0.009766 0.826172
vt 0.009766 0.826172
vt 0.009766 0.826172
vt 0.009766 0.826172
vt 0.009766 0.826172
vt 0.009766 0.826172
vt 0.009766 0.826172
vt 0.009766 0.826172
vt 0.009766 0.826172
vt 0.009766 0.826172
vt 0.009766 0.826172
vt 0.009766 0.826172
vt 0.009766 0.826172
vt 0.009766 0.826172
vt 0.009766 0.826172
vt 0.009766 0.826172
vt 0.009766 0.826172
vt 0.009766 0.826172
vt 0.009766 0.826172
vt 0.009766 0.826172
vt 0.009766 0.826172
vt 0.009766 0.826172
vt 0.009766 0.826172
vt 0.009766 0.826172
vt 0.009766 0.826172
vt 0.009766 0.826172
vt 0.009766 0.826172
vt 0.009766 0.826172
vt 0.009766 0.826172
vt 0.009766 0.826172
vt 0.009766 0.826172
vt 0.009766 0.826172
vt 0.009766 0.826172
vt 0.009766 0.826172
vt 0.009766 0.826172
vt 0.009766 0.826172
vt 0.009766 0.826172
vt 0.009766 0.826172
vt 0.009766 0.826172
vt 0.009766 0.826172
vt 0.009766 0.826172
vt 0.009766 0.826172
vt 0.009766 0.826172
vt 0.009766 0.826172
vt 0.009766 0.826172
vt 0.009766 0.826172
vt 0.009766 0.826172
vt 0.009766 0.826172
vt 0.009766 0.826172
vn 0.1835 0.0672 0.9807
vn 0.1665 0.3987 0.9018
vn -0.1665 0.3987 0.9018
vn -0.1835 0.0672 0.9807
vn 0.9807 0.0672 -0.1835
vn 0.9018 0.3987 -0.1665
vn 0.9018 0.3987 0.1665
vn 0.9807 0.0672 0.1835
vn -0.1907 -0.9629 -0.1908
vn 0.1907 -0.9629 -0.1908
vn 0.1907 -0.9629 0.1908
vn -0.1907 -0.9629 0.1908
vn 0.1565 0.9752 -0.1565
vn -0.1565 0.9752 -0.1565
vn -0.1565 0.9752 0.1565
vn 0.1565 0.9752 0.1565
vn -0.9807 0.0672 0.1835
vn -0.9018 0.3987 0.1665
vn -0.9018 0.3987 -0.1665
vn -0.9807 0.0672 -0.1835
vn -0.1835 0.0672 -0.9807
vn -0.1665 0.3987 -0.9018
vn 0.1665 0.3987 -0.9018
vn 0.1835 0.0672 -0.9807
vn 0.1837 -0.0431 0.9820
vn 0.1744 0.3069 0.9356
vn -0.1744 0.3069 0.9356
vn -0.1837 -0.0431 0.9820
vn 0.9808 -0.0691 -0.1823
vn 0.9433 0.2835 -0.1728
vn 0.9433 0.2835 0.1728
vn 0.9808 -0.0691 0.1823
vn -0.2091 -0.9567 -0.2023
vn 0.2091 -0.9567 -0.2023
vn 0.2091 -0.9567 0.2023
vn -0.2091 -0.9567 0.2023
vn 0.1697 0.9714 -0.1660
vn -0.1697 0.9714 -0.1660
vn -0.1697 0.9714 0.1660
vn 0.1697 0.9714 0.1660
vn -0.9808 -0.0691 0.1823
vn -0.9433 0.2835 0.1728
vn -0.9433 0.2835 -0.1728
vn -0.9808 -0.0691 -0.1823
vn -0.1837 -0.0431 -0.9820
vn -0.1744 0.3069 -0.9356
vn 0.1744 0.3069 -0.9356
vn 0.1837 -0.0431 -0.9820
vn 0.1867 0.1475 0.9713
vn 0.1674 0.4608 0.8716
vn -0.1674 0.4608 0.8716
vn -0.1867 0.1475 0.9713
vn 0.9802 0.0847 -0.1792
vn 0.8971 0.4119 -0.1597
vn 0.8971 0.4119 0.1597
vn 0.9802 0.0847 0.1792
vn 0.1581 0.9766 -0.1459
vn -0.1581 0.9766 -0.1459
vn -0.1581 0.9766 0.1459
vn 0.1581 0.9766 0.1459
vn -0.9802 0.0847 0.1792
vn -0.8971 0.4119 0.1597
vn -0.8971 0.4119 -0.1597
vn -0.9802 0.0847 -0.1792
vn -0.1867 0.1475 -0.9713
vn -0.1674 0.4608 -0.8716
vn 0.1674 0.4608 -0.8716
vn 0.1867 0.1475 -0.9713
vn -0.2017 -0.9585 0.2017
vn -0.1628 -0.9041 0.3952
vn -0.3681 -0.8538 0.3681
vn -0.3952 -0.9041 0.1628
vn -0.3678 0.1173 0.9225
vn -0.3520 -0.0429 0.9350
vn -0.1978 -0.1088 0.9742
vn -0.9742 -0.1088 0.1978
vn -0.9350 -0.0429 0.3520
vn -0.9225 0.1173 0.3678
vn -0.1301 0.5455 0.8280
vn -0.2978 0.5347 0.7908
vn -0.3431 0.4020 0.8489
vn -0.3170 0.9373 0.1446
vn -0.2832 0.9163 0.2832
vn -0.1446 0.9373 0.3170
vn -0.8489 0.4020 0.3431
vn -0.7908 0.5347 0.2978
vn -0.8280 0.5455 0.1301
vn -0.2017 -0.9585 -0.2017
vn -0.3952 -0.9041 -0.1628
vn -0.3681 -0.8538 -0.3681
vn -0.1628 -0.9041 -0.3952
vn -0.9225 0.1173 -0.3678
vn -0.9350 -0.0429 -0.3520
vn -0.9742 -0.1088 -0.1978
vn -0.1978 -0.1088 -0.9742
vn -0.3520 -0.0429 -0.9350
vn -0.3678 0.1173 -0.9225
vn -0.1446 0.9373 -0.3170
vn -0.2832 0.9163 -0.2832
vn -0.3170 0.9373 -0.1446
vn -0.3431 0.4020 -0.8489
vn -0.2978 0.5347 -0.7908
vn -0.1301 0.5455 -0.8280
vn -0.8280 0.5455 -0.1301
vn -0.7908 0.5347 -0.2978
vn -0.8489 0.4020 -0.3431
vn 0.2017 -0.9585 0.2017
vn 0.3952 -0.9041 0.1628
vn 0.3681 -0.8538 0.3681
vn 0.1628 -0.9041 0.3952
vn 0.9225 0.1173 0.3678
vn 0.9350 -0.0429 0.3520
vn 0.9742 -0.1088 0.1978
vn 0.1978 -0.1088 0.9742
vn 0.3520 -0.0429 0.9350
vn 0.3678 0.1173 0.9225
vn 0.1446 0.9373 0.3170
vn 0.2832 0.9163 0.2832
vn 0.3170 0.9373 0.1446
vn 0.3431 0.4020 0.8489
vn 0.2978 0.5347 0.7908
vn 0.1301 0.5455 0.8280
vn 0.8280 0.5455 0.1301
vn 0.7908 0.5347 0.2978
vn 0.8489 0.4020 0.3431
vn 0.2017 -0.9585 -0.2017
vn 0.1628 -0.9041 -0.3952
vn 0.3681 -0.8538 -0.3681
vn 0.3952 -0.9041 -0.1628
vn 0.3678 0.1173 -0.9225
vn 0.3520 -0.0429 -0.9350
vn 0.1978 -0.1088 -0.9742
vn 0.9742 -0.1088 -0.1978
vn 0.9350 -0.0429 -0.3520
vn 0.9225 0.1173 -0.3678
vn 0.3170 0.9373 -0.1446
vn 0.2832 0.9163 -0.2832
vn 0.1446 0.9373 -0.3170
vn 0.8489 0.4020 -0.3431
vn 0.7908 0.5347 -0.2978
vn 0.8280 0.5455 -0.1301
vn 0.1301 0.5455 -0.8280
vn 0.2978 0.5347 -0.7908
vn 0.3431 0.4020 -0.8489
vn -0.1640 -0.9110 0.3783
vn -0.3492 -0.8715 0.3442
vn -0.3800 -0.9110 0.1601
vn -0.3678 -0.0087 0.9299
vn -0.3427 -0.1806 0.9219
vn -0.1770 -0.2291 0.9572
vn -0.9508 -0.2532 0.1782
vn -0.9200 -0.2004 0.3368
vn -0.9311 -0.0338 0.3632
vn -0.1444 0.4710 0.8702
vn -0.3116 0.4474 0.8383
vn -0.3529 0.2973 0.8872
vn -0.3416 0.9275 0.1517
vn -0.3058 0.9031 0.3015
vn -0.1530 0.9294 0.3359
vn -0.8941 0.2770 0.3519
vn -0.8465 0.4328 0.3099
vn -0.8811 0.4516 0.1407
vn -0.3800 -0.9110 -0.1601
vn -0.3492 -0.8715 -0.3442
vn -0.1640 -0.9110 -0.3783
vn -0.9311 -0.0338 -0.3632
vn -0.9200 -0.2004 -0.3368
vn -0.9508 -0.2532 -0.1782
vn -0.1770 -0.2291 -0.9572
vn -0.3427 -0.1806 -0.9219
vn -0.3678 -0.0087 -0.9299
vn -0.1530 0.9294 -0.3359
vn -0.3058 0.9031 -0.3015
vn -0.3416 0.9275 -0.1517
vn -0.3529 0.2973 -0.8872
vn -0.3116 0.4474 -0.8383
vn -0.1444 0.4710 -0.8702
vn -0.8811 0.4516 -0.1407
vn -0.8465 0.4328 -0.3099
vn -0.8941 0.2770 -0.3519
vn 0.3800 -0.9110 0.1601
vn 0.3492 -0.8715 0.3442
vn 0.1640 -0.9110 0.3783
vn 0.9311 -0.0338 0.3632
vn 0.9200 -0.2004 0.3368
vn 0.9508 -0.2532 0.1782
vn 0.1770 -0.2291 0.9572
vn 0.3427 -0.1806 0.9219
vn 0.3678 -0.0087 0.9299
vn 0.1530 0.9294 0.3359
vn 0.3058 0.9031 0.3015
vn 0.3416 0.9275 0.1517
vn 0.3529 0.2973 0.8872
vn 0.3116 0.4474 0.8383
vn 0.1444 0.4710 0.8702
vn 0.8811 0.4516 0.1407
vn 0.8465 0.4328 0.3099
vn 0.8941 0.2770 0.3519
vn 0.1640 -0.9110 -0.3783
vn 0.3492 -0.8715 -0.3442
vn 0.3800 -0.9110 -0.1601
vn 0.3678 -0.0087 -0.9299
vn 0.3427 -0.1806 -0.9219
vn 0.1770 -0.2291 -0.9572
vn 0.9508 -0.2532 -0.1782
vn 0.9200 -0.2004 -0.3368
vn 0.9311 -0.0338 -0.3632
vn 0.3416 0.9275 -0.1517
vn 0.3058 0.9031 -0.3015
vn 0.1530 0.9294 -0.3359
vn 0.8941 0.2770 -0.3519
vn 0.8465 0.4328 -0.3099
vn 0.8811 0.4516 -0.1407
vn 0.1444 0.4710 -0.8702
vn 0.3116 0.4474 -0.8383
vn 0.3529 0.2973 -0.8872
vn -0.1705 -0.9042 0.3915
vn -0.3901 -0.8467 0.3618
vn -0.4082 -0.8999 0.1535
vn -0.3764 0.2031 0.9039
vn -0.3677 0.0456 0.9288
vn -0.2061 -0.0211 0.9783
vn -0.9753 -0.0827 0.2046
vn -0.9389 -0.0083 0.3440
vn -0.9227 0.1412 0.3586
vn -0.1315 0.5935 0.7940
vn -0.2996 0.5808 0.7569
vn -0.3438 0.4629 0.8170
vn -0.3191 0.9378 0.1365
vn -0.2856 0.9210 0.2650
vn -0.1457 0.9436 0.2974
vn -0.8415 0.4244 0.3341
vn -0.7820 0.5536 0.2865
vn -0.8224 0.5559 0.1207
vn -0.4082 -0.8999 -0.1535
vn -0.3901 -0.8467 -0.3618
vn -0.1705 -0.9042 -0.3915
vn -0.9227 0.1412 -0.3586
vn -0.9389 -0.0083 -0.3440
vn -0.9753 -0.0827 -0.2046
vn -0.2061 -0.0211 -0.9783
vn -0.3677 0.0456 -0.9288
vn -0.3764 0.2031 -0.9039
vn -0.1457 0.9436 -0.2974
vn -0.2856 0.9210 -0.2650
vn -0.3191 0.9378 -0.1365
vn -0.3438 0.4629 -0.8170
vn -0.2996 0.5808 -0.7569
vn -0.1315 0.5935 -0.7940
vn -0.8224 0.5559 -0.1207
vn -0.7820 0.5536 -0.2865
vn -0.8415 0.4244 -0.3341
vn 0.4082 -0.8999 0.1535
vn 0.3901 -0.8467 0.3618
vn 0.1705 -0.9042 0.3915
vn 0.9227 0.1412 0.3586
vn 0.9389 -0.0083 0.3440
vn 0.9753 -0.0827 0.2046
vn 0.2061 -0.0211 0.9783
vn 0.3677 0.0456 0.9288
vn 0.3764 0.2031 0.9039
vn 0.1457 0.9436 0.2974
vn 0.2856 0.9210 0.2650
vn 0.3191 0.9379 0.1365
vn 0.3438 0.4629 0.8170
vn 0.2996 0.5808 0.7569
vn 0.1315 0.5935 0.7940
vn 0.8224 0.5559 0.1207
vn 0.7820 0.5536 0.2865
vn 0.8415 0.4244 0.3341
vn 0.1705 -0.9042 -0.3915
vn 0.3901 -0.8467 -0.3618
vn 0.4082 -0.8999 -0.1535
vn 0.3764 0.2031 -0.9039
vn 0.3677 0.0456 -0.9288
vn 0.2061 -0.0211 -0.9783
vn 0.9753 -0.0827 -0.2046
vn 0.9389 -0.0083 -0.3440
vn 0.9227 0.1412 -0.3586
vn 0.3191 0.9378 -0.1365
vn 0.2856 0.9210 -0.2650
vn 0.1457 0.9436 -0.2974
vn 0.8415 0.4244 -0.3341
vn 0.7820 0.5536 -0.2865
vn 0.8224 0.5559 -0.1207
vn 0.1315 0.5935 -0.7940
vn 0.2996 0.5808 -0.7569
vn 0.3438 0.4629 -0.8170
usemtl Atlas
s 1
f 31/1/1 37/2/2 8/3/3 2/4/4
f 45/5/5 51/6/6 38/7/7 30/8/8
f 71/9/9 99/10/10 85/11/11 57/12/12
f 50/13/13 22/14/14 9/15/15 36/16/16
f 3/17/17 10/18/18 24/19/19 16/20/20
f 17/21/21 23/22/22 52/23/23 44/24/24
f 87/25/25 93/26/26 64/27/27 58/28/28
f 101/29/29 107/30/30 94/31/31 86/32/32
f 127/33/33 155/34/34 141/35/35 113/36/36
f 106/37/37 78/38/38 65/39/39 92/40/40
f 59/41/41 66/42/42 80/43/43 72/44/44
f 73/45/45 79/46/46 108/47/47 100/48/48
f 143/49/49 149/50/50 120/51/51 114/52/52
f 157/53/53 163/54/54 150/55/55 142/56/56
f 162/57/57 134/58/58 121/59/59 148/60/60
f 115/61/61 122/62/62 136/63/63 128/64/64
f 129/65/65 135/66/66 164/67/67 156/68/68
f 1/69/69 4/70/70 5/71/71 7/72/72
f 2/4/4 6/73/73 5/71/74 4/70/75
f 3/17/17 7/72/76 5/71/77 6/73/78
f 8/3/3 11/74/79 12/75/80 14/76/81
f 9/15/15 13/77/82 12/75/83 11/74/84
f 10/18/18 14/76/85 12/75/86 13/77/87
f 15/78/88 18/79/89 19/80/90 21/81/91
f 16/20/20 20/82/92 19/80/93 18/79/94
f 17/21/21 21/81/95 19/80/96 20/82/97
f 22/14/14 25/83/98 26/84/99 28/85/100
f 23/22/22 27/86/101 26/84/102 25/83/103
f 24/19/19 28/85/104 26/84/105 27/86/106
f 29/87/107 32/88/108 33/89/109 35/90/110
f 30/8/8 34/91/111 33/89/112 32/88/113
f 31/1/1 35/90/114 33/89/115 34/91/116
f 36/16/16 39/92/117 40/93/118 42/94/119
f 37/2/2 41/95/120 40/93/121 39/92/122
f 38/7/7 42/94/123 40/93/124 41/95/125
f 43/96/126 46/97/127 47/98/128 49/99/129
f 44/24/24 48/100/130 47/98/131 46/97/132
f 45/5/5 49/99/133 47/98/134 48/100/135
f 50/13/13 53/101/136 54/102/137 56/103/138
f 51/6/6 55/104/139 54/102/140 53/101/141
f 52/23/23 56/103/142 54/102/143 55/104/144
f 57/12/12 60/105/145 61/106/146 63/107/147
f 58/28/28 62/108/148 61/106/149 60/105/150
f 59/41/41 63/107/151 61/106/152 62/108/153
f 64/27/27 67/109/154 68/110/155 70/111/156
f 65/39/39 69/112/157 68/110/158 67/109/159
f 66/42/42 70/111/160 68/110/161 69/112/162
f 71/9/9 74/113/163 75/114/164 77/115/165
f 72/44/44 76/116/166 75/114/167 74/113/168
f 73/45/45 77/115/169 75/114/170 76/116/171
f 78/38/38 81/117/172 82/118/173 84/119/174
f 79/46/46 83/120/175 82/118/176 81/117/177
f 80/43/43 84/119/178 82/118/179 83/120/180
f 85/11/11 88/121/181 89/122/182 91/123/183
f 86/32/32 90/124/184 89/122/185 88/121/186
f 87/25/25 91/123/187 89/122/188 90/124/189
f 92/40/40 95/125/190 96/126/191 98/127/192
f 93/26/26 97/128/193 96/126/194 95/125/195
f 94/31/31 98/127/196 96/126/197 97/128/198
f 99/10/10 102/129/199 103/130/200 105/131/201
f 100/48/48 104/132/202 103/130/203 102/129/204
f 101/29/29 105/131/205 103/130/206 104/132/207
f 106/37/37 109/133/208 110/134/209 112/135/210
f 107/30/30 111/136/211 110/134/212 109/133/213
f 108/47/47 112/135/214 110/134/215 111/136/216
f 113/36/36 116/137/217 117/138/218 119/139/219
f 114/52/52 118/140/220 117/138/221 116/137/222
f 115/61/61 119/139/223 117/138/224 118/140/225
f 120/51/51 123/141/226 124/142/227 126/143/228
f 121/59/59 125/144/229 124/142/230 123/141/231
f 122/62/62 126/143/232 124/142/233 125/144/234
f 127/33/33 130/145/235 131/146/236 133/147/237
f 128/64/64 132/148/238 131/146/239 130/145/240
f 129/65/65 133/147/241 131/146/242 132/148/243
f 134/58/58 137/149/244 138/150/245 140/151/246
f 135/66/66 139/152/247 138/150/248 137/149/249
f 136/63/63 140/151/250 138/150/251 139/152/252
f 141/35/35 144/153/253 145/154/254 147/155/255
f 142/56/56 146/156/256 145/154/257 144/153/258
f 143/49/49 147/155/259 145/154/260 146/156/261
f 148/60/60 151/157/262 152/158/263 154/159/264
f 149/50/50 153/160/265 152/158/266 151/157/267
f 150/55/55 154/159/268 152/158/269 153/160/270
f 155/34/34 158/161/271 159/162/272 161/163/273
f 156/68/68 160/164/274 159/162/275 158/161/276
f 157/53/53 161/163/277 159/162/278 160/164/279
f 162/57/57 165/165/280 166/166/281 168/167/282
f 163/54/54 167/168/283 166/166/284 165/165/285
f 164/67/67 168/167/286 166/166/287 167/168/288
f 15/78/88 1/69/69 7/72/72 18/79/89
f 18/79/94 7/72/76 3/17/17 16/20/20
f 2/4/4 8/3/3 14/76/81 6/73/73
f 6/73/78 14/76/85 10/18/18 3/17/17
f 9/15/15 22/14/14 28/85/100 13/77/82
f 13/77/87 28/85/104 24/19/19 10/18/18
f 23/22/22 17/21/21 20/82/97 27/86/101
f 27/86/106 20/82/92 16/20/20 24/19/19
f 43/96/126 15/78/88 21/81/91 46/97/127
f 46/97/132 21/81/95 17/21/21 44/24/24
f 22/14/14 50/13/13 56/103/138 25/83/98
f 25/83/103 56/103/142 52/23/23 23/22/22
f 51/6/6 45/5/5 48/100/135 55/104/139
f 55/104/144 48/100/130 44/24/24 52/23/23
f 29/87/107 43/96/126 49/99/129 32/88/108
f 32/88/113 49/99/133 45/5/5 30/8/8
f 50/13/13 36/16/16 42/94/119 53/101/136
f 53/101/141 42/94/123 38/7/7 51/6/6
f 37/2/2 31/1/1 34/91/116 41/95/120
f 41/95/125 34/91/111 30/8/8 38/7/7
f 1/69/69 29/87/107 35/90/110 4/70/70
f 4/70/75 35/90/114 31/1/1 2/4/4
f 36/16/16 9/15/15 11/74/84 39/92/117
f 39/92/122 11/74/79 8/3/3 37/2/2
f 71/9/9 57/12/12 63/107/147 74/113/163
f 74/113/168 63/107/151 59/41/41 72/44/44
f 58/28/28 64/27/27 70/111/156 62/108/148
f 62/108/153 70/111/160 66/42/42 59/41/41
f 65/39/39 78/38/38 84/119/174 69/112/157
f 69/112/162 84/119/178 80/43/43 66/42/42
f 79/46/46 73/45/45 76/116/171 83/120/175
f 83/120/180 76/116/166 72/44/44 80/43/43
f 99/10/10 71/9/9 77/115/165 102/129/199
f 102/129/204 77/115/169 73/45/45 100/48/48
f 78/38/38 106/37/37 112/135/210 81/117/172
f 81/117/177 112/135/214 108/47/47 79/46/46
f 107/30/30 101/29/29 104/132/207 111/136/211
f 111/136/216 104/132/202 100/48/48 108/47/47
f 85/11/11 99/10/10 105/131/201 88/121/181
f 88/121/186 105/131/205 101/29/29 86/32/32
f 106/37/37 92/40/40 98/127/192 109/133/208
f 109/133/213 98/127/196 94/31/31 107/30/30
f 93/26/26 87/25/25 90/124/189 97/128/193
f 97/128/198 90/124/184 86/32/32 94/31/31
f 57/12/12 85/11/11 91/123/183 60/105/145
f 60/105/150 91/123/187 87/25/25 58/28/28
f 92/40/40 65/39/39 67/109/159 95/125/190
f 95/125/195 67/109/154 64/27/27 93/26/26
f 127/33/33 113/36/36 119/139/219 130/145/235
f 130/145/240 119/139/223 115/61/61 128/64/64
f 114/52/52 120/51/51 126/143/228 118/140/220
f 118/140/225 126/143/232 122/62/62 115/61/61
f 121/59/59 134/58/58 140/151/246 125/144/229
f 125/144/234 140/151/250 136/63/63 122/62/62
f 135/66/66 129/65/65 132/148/243 139/152/247
f 139/152/252 132/148/238 128/64/64 136/63/63
f 155/34/34 127/33/33 133/147/237 158/161/271
f 158/161/276 133/147/241 129/65/65 156/68/68
f 134/58/58 162/57/57 168/167/282 137/149/244
f 137/149/249 168/167/286 164/67/67 135/66/66
f 163/54/54 157/53/53 160/164/279 167/168/283
f 167/168/288 160/164/274 156/68/68 164/67/67
f 141/35/35 155/34/34 161/163/273 144/153/253
f 144/153/258 161/163/277 157/53/53 142/56/56
f 162/57/57 148/60/60 154/159/264 165/165/280
f 165/165/285 154/159/268 150/55/55 163/54/54
f 149/50/50 143/49/49 146/156/261 153/160/265
f 153/160/270 146/156/256 142/56/56 150/55/55
f 113/36/36 141/35/35 147/155/255 116/137/217
f 116/137/222 147/155/259 143/49/49 114/52/52
f 148/60/60 121/59/59 123/141/231 151/157/262
f 151/157/267 123/141/226 120/51/51 149/50/50
f 15/78/88 43/96/126 29/87/107 1/69/69
