# Blender v3.0.0 OBJ File: 'Rock1.blend'
# www.blender.org
mtllib Rock1.mtl
o Rock1_Cube.471
v -0.409145 0.000000 0.404176
v -0.399064 0.058886 0.451776
v -0.459917 0.059478 0.390090
v -0.406062 0.017125 0.443366
v -0.439787 0.025013 0.433302
v -0.441963 0.059182 0.433406
v -0.449091 0.017543 0.399748
v -0.337632 0.445438 0.368903
v -0.328997 0.504324 0.296054
v -0.398673 0.444847 0.307470
v -0.331357 0.487200 0.342587
v -0.367590 0.479311 0.335905
v -0.374519 0.486781 0.299148
v -0.380626 0.445143 0.350659
v -0.409145 0.000000 -0.403091
v -0.459917 0.059478 -0.389004
v -0.399064 0.058886 -0.450690
v -0.449091 0.017543 -0.398662
v -0.439787 0.025013 -0.432216
v -0.441963 0.059182 -0.432320
v -0.406062 0.017125 -0.442281
v -0.328997 0.504324 -0.294969
v -0.337632 0.445438 -0.367817
v -0.398673 0.444847 -0.306385
v -0.331357 0.487200 -0.341501
v -0.367590 0.479311 -0.334819
v -0.380626 0.445143 -0.349574
v -0.374519 0.486781 -0.298062
v 0.423240 0.000000 0.404176
v 0.474012 0.059478 0.390090
v 0.413159 0.058886 0.451776
v 0.463187 0.017543 0.399748
v 0.453883 0.025013 0.433302
v 0.456058 0.059182 0.433406
v 0.420157 0.017125 0.443366
v 0.343092 0.504324 0.296054
v 0.351728 0.445438 0.368903
v 0.412768 0.444847 0.307470
v 0.345452 0.487200 0.342587
v 0.381685 0.479311 0.335905
v 0.394721 0.445143 0.350659
v 0.388615 0.486781 0.299148
v 0.423240 0.000000 -0.403091
v 0.413159 0.058886 -0.450690
v 0.474012 0.059478 -0.389004
v 0.420157 0.017125 -0.442281
v 0.453883 0.025013 -0.432216
v 0.456058 0.059182 -0.432320
v 0.463187 0.017543 -0.398662
v 0.343092 0.504324 -0.294969
v 0.412768 0.444847 -0.306385
v 0.351728 0.445438 -0.367817
v 0.388615 0.486781 -0.298062
v 0.381685 0.479311 -0.334819
v 0.394721 0.445143 -0.349574
v 0.345452 0.487200 -0.341501
vt 0.013672 0.830078
vt 0.013672 0.830078
vt 0.013672 0.830078
vt 0.013672 0.830078
vt 0.013672 0.830078
vt 0.013672 0.830078
vt 0.013672 0.830078
vt 0.013672 0.830078
vt 0.013672 0.830078
vt 0.013672 0.830078
vt 0.013672 0.830078
vt 0.013672 0.830078
vt 0.013672 0.830078
vt 0.013672 0.830078
vt 0.013672 0.830078
vt 0.013672 0.830078
vt 0.013672 0.830078
vt 0.013672 0.830078
vt 0.013672 0.830078
vt 0.013672 0.830078
vt 0.013672 0.830078
vt 0.013672 0.830078
vt 0.013672 0.830078
vt 0.013672 0.830078
vt 0.013672 0.830078
vt 0.013672 0.830078
vt 0.013672 0.830078
vt 0.013672 0.830078
vt 0.013672 0.830078
vt 0.013672 0.830078
vt 0.013672 0.830078
vt 0.013672 0.830078
vt 0.013672 0.830078
vt 0.013672 0.830078
vt 0.013672 0.830078
vt 0.013672 0.830078
vt 0.013672 0.830078
vt 0.013672 0.830078
vt 0.013672 0.830078
vt 0.013672 0.830078
vt 0.013672 0.830078
vt 0.013672 0.830078
vt 0.013672 0.830078
vt 0.013672 0.830078
vt 0.013672 0.830078
vt 0.013672 0.830078
vt 0.013672 0.830078
vt 0.013672 0.830078
vt 0.013672 0.830078
vt 0.013672 0.830078
vt 0.013672 0.830078
vt 0.013672 0.830078
vt 0.013672 0.830078
vt 0.013672 0.830078
vt 0.013672 0.830078
vt 0.013672 0.830078
vn 0.1857 0.0428 0.9817
vn 0.1713 0.3794 0.9093
vn -0.1713 0.3794 0.9093
vn -0.1857 0.0428 0.9817
vn 0.9833 0.0001 -0.1819
vn 0.9242 0.3434 -0.1673
vn 0.9242 0.3434 0.1673
vn 0.9833 0.0001 0.1819
vn -0.1643 0.9738 -0.1571
vn -0.1643 0.9738 0.1571
vn 0.1643 0.9738 0.1571
vn 0.1643 0.9738 -0.1571
vn -0.9833 0.0001 0.1819
vn -0.9242 0.3434 0.1673
vn -0.9242 0.3434 -0.1673
vn -0.9833 0.0001 -0.1819
vn -0.1857 0.0428 -0.9817
vn -0.1713 0.3794 -0.9093
vn 0.1713 0.3794 -0.9093
vn 0.1857 0.0428 -0.9817
vn -0.1985 -0.9602 0.1966
vn -0.1672 -0.9072 0.3861
vn -0.3666 -0.8606 0.3534
vn -0.3928 -0.9059 0.1584
vn -0.3723 0.0864 0.9241
vn -0.3544 -0.0819 0.9315
vn -0.1900 -0.1391 0.9719
vn -0.9651 -0.1798 0.1906
vn -0.9326 -0.1164 0.3416
vn -0.9309 0.0447 0.3625
vn -0.1379 0.5300 0.8367
vn -0.3055 0.5120 0.8029
vn -0.3489 0.3755 0.8587
vn -0.3311 0.9323 0.1455
vn -0.2961 0.9115 0.2854
vn -0.1497 0.9358 0.3191
vn -0.8727 0.3457 0.3448
vn -0.8182 0.4907 0.2997
vn -0.8554 0.5012 0.1311
vn -0.1985 -0.9602 -0.1966
vn -0.3928 -0.9059 -0.1584
vn -0.3666 -0.8606 -0.3534
vn -0.1672 -0.9072 -0.3861
vn -0.9309 0.0447 -0.3625
vn -0.9326 -0.1164 -0.3416
vn -0.9651 -0.1798 -0.1906
vn -0.1900 -0.1391 -0.9719
vn -0.3544 -0.0819 -0.9315
vn -0.3723 0.0864 -0.9241
vn -0.1497 0.9358 -0.3191
vn -0.2961 0.9115 -0.2854
vn -0.3311 0.9323 -0.1455
vn -0.3489 0.3755 -0.8587
vn -0.3055 0.5120 -0.8029
vn -0.1379 0.5300 -0.8367
vn -0.8554 0.5012 -0.1311
vn -0.8182 0.4907 -0.2997
vn -0.8727 0.3457 -0.3448
vn 0.1985 -0.9602 0.1966
vn 0.3928 -0.9059 0.1584
vn 0.3666 -0.8606 0.3534
vn 0.1672 -0.9072 0.3861
vn 0.9309 0.0447 0.3625
vn 0.9326 -0.1164 0.3416
vn 0.9651 -0.1798 0.1906
vn 0.1900 -0.1391 0.9719
vn 0.3544 -0.0819 0.9315
vn 0.3723 0.0864 0.9241
vn 0.1497 0.9358 0.3191
vn 0.2961 0.9115 0.2854
vn 0.3311 0.9323 0.1455
vn 0.3489 0.3755 0.8587
vn 0.3055 0.5120 0.8029
vn 0.1379 0.5300 0.8367
vn 0.8554 0.5012 0.1311
vn 0.8182 0.4907 0.2997
vn 0.8727 0.3457 0.3448
vn 0.1985 -0.9602 -0.1966
vn 0.1672 -0.9072 -0.3861
vn 0.3666 -0.8606 -0.3534
vn 0.3928 -0.9059 -0.1584
vn 0.3723 0.0864 -0.9241
vn 0.3544 -0.0819 -0.9315
vn 0.1900 -0.1391 -0.9719
vn 0.9651 -0.1798 -0.1906
vn 0.9326 -0.1164 -0.3416
vn 0.9309 0.0447 -0.3625
vn 0.3311 0.9323 -0.1455
vn 0.2961 0.9115 -0.2854
vn 0.1497 0.9358 -0.3191
vn 0.8727 0.3457 -0.3448
vn 0.8182 0.4907 -0.2997
vn 0.8554 0.5012 -0.1311
vn 0.1379 0.5300 -0.8367
vn 0.3055 0.5120 -0.8029
vn 0.3489 0.3755 -0.8587
usemtl Atlas
s 1
f 31/1/1 37/2/2 8/3/3 2/4/4
f 45/5/5 51/6/6 38/7/7 30/8/8
f 22/9/9 9/10/10 36/11/11 50/12/12
f 3/13/13 10/14/14 24/15/15 16/16/16
f 17/17/17 23/18/18 52/19/19 44/20/20
f 1/21/21 4/22/22 5/23/23 7/24/24
f 2/4/4 6/25/25 5/23/26 4/22/27
f 3/13/13 7/24/28 5/23/29 6/25/30
f 8/3/3 11/26/31 12/27/32 14/28/33
f 9/10/10 13/29/34 12/27/35 11/26/36
f 10/14/14 14/28/37 12/27/38 13/29/39
f 15/30/40 18/31/41 19/32/42 21/33/43
f 16/16/16 20/34/44 19/32/45 18/31/46
f 17/17/17 21/33/47 19/32/48 20/34/49
f 22/9/9 25/35/50 26/36/51 28/37/52
f 23/18/18 27/38/53 26/36/54 25/35/55
f 24/15/15 28/37/56 26/36/57 27/38/58
f 29/39/59 32/40/60 33/41/61 35/42/62
f 30/8/8 34/43/63 33/41/64 32/40/65
f 31/1/1 35/42/66 33/41/67 34/43/68
f 36/11/11 39/44/69 40/45/70 42/46/71
f 37/2/2 41/47/72 40/45/73 39/44/74
f 38/7/7 42/46/75 40/45/76 41/47/77
f 43/48/78 46/49/79 47/50/80 49/51/81
f 44/20/20 48/52/82 47/50/83 46/49/84
f 45/5/5 49/51/85 47/50/86 48/52/87
f 50/12/12 53/53/88 54/54/89 56/55/90
f 51/6/6 55/56/91 54/54/92 53/53/93
f 52/19/19 56/55/94 54/54/95 55/56/96
f 15/30/40 1/21/21 7/24/24 18/31/41
f 18/31/46 7/24/28 3/13/13 16/16/16
f 2/4/4 8/3/3 14/28/33 6/25/25
f 6/25/30 14/28/37 10/14/14 3/13/13
f 9/10/10 22/9/9 28/37/52 13/29/34
f 13/29/39 28/37/56 24/15/15 10/14/14
f 23/18/18 17/17/17 20/34/49 27/38/53
f 27/38/58 20/34/44 16/16/16 24/15/15
f 43/48/78 15/30/40 21/33/43 46/49/79
f 46/49/84 21/33/47 17/17/17 44/20/20
f 22/9/9 50/12/12 56/55/90 25/35/50
f 25/35/55 56/55/94 52/19/19 23/18/18
f 51/6/6 45/5/5 48/52/87 55/56/91
f 55/56/96 48/52/82 44/20/20 52/19/19
f 29/39/59 43/48/78 49/51/81 32/40/60
f 32/40/65 49/51/85 45/5/5 30/8/8
f 50/12/12 36/11/11 42/46/71 53/53/88
f 53/53/93 42/46/75 38/7/7 51/6/6
f 37/2/2 31/1/1 34/43/68 41/47/72
f 41/47/77 34/43/63 30/8/8 38/7/7
f 1/21/21 29/39/59 35/42/62 4/22/22
f 4/22/27 35/42/66 31/1/1 2/4/4
f 36/11/11 9/10/10 11/26/36 39/44/69
f 39/44/74 11/26/31 8/3/3 37/2/2
f 15/30/40 43/48/78 29/39/59 1/21/21
