# Blender v3.0.0 OBJ File: 'Stone.blend'
# www.blender.org
mtllib Stone.mtl
o Stone_Cube.506
v -1.000000 -1.000000 -1.000000
v -1.000000 1.000000 -1.000000
v 1.000000 -1.000000 -1.000000
v 1.000000 1.000000 -1.000000
v -1.000000 -1.000000 1.000000
v -1.000000 1.000000 1.000000
v 1.000000 -1.000000 1.000000
v 1.000000 1.000000 1.000000
vt 0.013238 0.827590
vt 0.013238 0.827590
vt 0.013238 0.827590
vt 0.013238 0.827590
vt 0.013238 0.827590
vt 0.013238 0.827590
vt 0.013238 0.827590
vt 0.013238 0.827590
vn 0.0000 -1.0000 -0.0000
vn 0.0000 1.0000 -0.0000
vn -1.0000 0.0000 -0.0000
vn -0.0000 0.0000 1.0000
vn 1.0000 0.0000 0.0000
vn 0.0000 0.0000 -1.0000
usemtl Atlas
s off
f 3/1/1 7/2/1 5/3/1 1/4/1
f 8/5/2 4/6/2 2/7/2 6/8/2
f 5/3/3 6/8/3 2/7/3 1/4/3
f 7/2/4 8/5/4 6/8/4 5/3/4
f 3/1/5 4/6/5 8/5/5 7/2/5
f 1/4/6 2/7/6 4/6/6 3/1/6
