# Blender v3.0.0 OBJ File: 'Block_Crate.blend'
# www.blender.org
mtllib Block_Crate.mtl
o Block_Crate_Cube.460
v -0.977696 -0.000000 -0.000000
v -0.977696 -0.248741 -0.000000
v -0.977696 -0.000000 -0.248741
v -0.977696 0.248741 -0.000000
v -0.977696 -0.000000 0.248741
v -0.844469 0.248741 -0.000000
v -0.844469 -0.000000 -0.248741
v -0.844469 -0.248741 -0.000000
v -0.844469 -0.000000 0.248741
v -0.977695 0.849157 -0.849157
v -0.844469 0.849157 -0.600417
v -0.977696 0.849157 0.600416
v -0.977696 0.849157 0.849157
v -0.977696 0.849157 -0.600417
v -0.844469 0.849157 0.600416
v -0.844469 -0.608113 -0.856854
v -0.844469 0.608113 -0.856854
v -0.977695 -0.608113 -0.856854
v -0.977695 0.849157 -0.856854
v -0.977695 -0.856854 -0.856854
v -0.977695 0.608113 -0.856854
v -0.977696 0.608112 0.856853
v -0.844470 -0.608113 0.856853
v -0.977696 0.849157 0.856853
v -0.844470 0.608112 0.856853
v -0.977696 -0.856854 0.856853
v -0.977696 -0.608113 0.856853
v -0.977696 -0.885073 -0.636333
v -0.844469 -0.885073 0.636332
v -0.977696 -0.885073 0.856853
v -0.977695 -0.885073 -0.856854
v -0.844469 -0.885073 -0.636333
v -0.977696 -0.885073 0.636332
v 0.977696 -0.000000 0.000000
v 0.977696 -0.248741 0.000000
v 0.977696 -0.000000 0.248741
v 0.977696 0.248741 0.000000
v 0.977696 -0.000000 -0.248741
v 0.844469 0.248741 0.000000
v 0.844469 -0.000000 0.248741
v 0.844469 -0.248741 0.000000
v 0.844469 -0.000000 -0.248741
v 0.977695 0.849157 0.849157
v 0.844469 0.849157 0.600417
v 0.977696 0.849157 -0.600416
v 0.977696 0.849157 -0.849157
v 0.977696 0.849157 0.600416
v 0.844469 0.849157 -0.600416
v 0.844469 -0.608113 0.856854
v 0.844469 0.608113 0.856854
v 0.977695 -0.608113 0.856854
v 0.977695 0.849157 0.856854
v 0.977695 -0.856854 0.856854
v 0.977695 0.608113 0.856854
v 0.977696 0.608112 -0.856853
v 0.844470 -0.608113 -0.856853
v 0.977696 0.849157 -0.856853
v 0.844470 0.608112 -0.856853
v 0.977696 -0.856854 -0.856853
v 0.977696 -0.608113 -0.856853
v 0.977696 -0.885073 0.636333
v 0.844469 -0.885073 -0.636332
v 0.977696 -0.885073 -0.856853
v 0.977695 -0.885073 0.856854
v 0.844469 -0.885073 0.636333
v 0.977696 -0.885073 -0.636332
v -0.000000 -0.000000 0.977696
v -0.000000 -0.248741 0.977696
v -0.248741 -0.000000 0.977696
v -0.000000 0.248741 0.977696
v 0.248741 -0.000000 0.977696
v -0.000000 0.248741 0.844469
v -0.248741 -0.000000 0.844469
v -0.000000 -0.248741 0.844469
v 0.248741 -0.000000 0.844469
v -0.849157 0.849157 0.977696
v -0.600416 0.849157 0.844469
v 0.600416 0.849157 0.977696
v 0.849157 0.849157 0.977696
v -0.600416 0.849157 0.977696
v 0.600416 0.849157 0.844469
v -0.856853 -0.608113 0.844469
v -0.856854 0.608113 0.844469
v -0.856853 -0.608113 0.977696
v -0.856853 0.849157 0.977696
v -0.856854 -0.856854 0.977696
v -0.856854 0.608113 0.977696
v 0.856853 0.608112 0.977696
v 0.856854 -0.608113 0.844469
v 0.856854 0.849157 0.977696
v 0.856853 0.608112 0.844469
v 0.856854 -0.856854 0.977696
v 0.856854 -0.608113 0.977696
v -0.636332 -0.885073 0.977696
v 0.636332 -0.885073 0.844469
v 0.856854 -0.885073 0.977696
v -0.856854 -0.885073 0.977696
v -0.636332 -0.885073 0.844469
v 0.636332 -0.885073 0.977696
v 0.000000 -0.000000 -0.977696
v 0.000000 -0.248741 -0.977696
v 0.248741 -0.000000 -0.977696
v 0.000000 0.248741 -0.977696
v -0.248741 -0.000000 -0.977696
v 0.000000 0.248741 -0.844469
v 0.248741 -0.000000 -0.844469
v 0.000000 -0.248741 -0.844469
v -0.248741 -0.000000 -0.844469
v 0.849157 0.849157 -0.977696
v 0.600416 0.849157 -0.844469
v -0.600416 0.849157 -0.977696
v -0.849157 0.849157 -0.977696
v 0.600416 0.849157 -0.977696
v -0.600416 0.849157 -0.844469
v 0.856853 -0.608113 -0.844469
v 0.856854 0.608113 -0.844469
v 0.856853 -0.608113 -0.977696
v 0.856853 0.849157 -0.977696
v 0.856854 -0.856854 -0.977696
v 0.856853 0.608113 -0.977696
v -0.856853 0.608112 -0.977696
v -0.856854 -0.608113 -0.844469
v -0.856854 0.849157 -0.977696
v -0.856853 0.608112 -0.844469
v -0.856854 -0.856854 -0.977696
v -0.856854 -0.608113 -0.977696
v 0.636332 -0.885073 -0.977696
v -0.636332 -0.885073 -0.844469
v -0.856854 -0.885073 -0.977696
v 0.856854 -0.885073 -0.977696
v 0.636332 -0.885073 -0.844469
v -0.636332 -0.885073 -0.977696
v 0.000000 0.977696 -0.000000
v -0.248741 0.977696 0.000000
v 0.000000 0.977696 -0.248741
v 0.248741 0.977696 -0.000000
v 0.000000 0.977696 0.248741
v 0.248741 0.844469 -0.000000
v 0.000000 0.844469 -0.248741
v -0.248741 0.844469 0.000000
v 0.000000 0.844469 0.248741
v 0.849157 0.977696 -0.849157
v 0.849157 0.844469 -0.600416
v 0.849157 0.977696 0.600416
v 0.849157 0.977696 0.849157
v 0.849157 0.977696 -0.600416
v 0.849157 0.844469 0.600416
v -0.608112 0.844469 -0.856853
v 0.608113 0.844469 -0.856854
v -0.608112 0.977696 -0.856853
v 0.849157 0.977696 -0.856854
v -0.856854 0.977696 -0.856853
v 0.608113 0.977696 -0.856854
v 0.608113 0.977696 0.856853
v -0.608112 0.844469 0.856854
v 0.849157 0.977696 0.856853
v 0.608113 0.844469 0.856853
v -0.856853 0.977696 0.856854
v -0.608112 0.977696 0.856854
v -0.885073 0.977696 -0.636332
v -0.885073 0.844469 0.636332
v -0.885073 0.977696 0.856854
v -0.885073 0.977696 -0.856853
v -0.885073 0.844469 -0.636332
v -0.885073 0.977696 0.636332
v -0.000000 -0.977696 -0.000000
v -0.248741 -0.977696 0.000000
v -0.000000 -0.977696 0.248741
v 0.248741 -0.977696 -0.000000
v -0.000000 -0.977696 -0.248741
v 0.248741 -0.844469 -0.000000
v -0.000000 -0.844469 0.248741
v -0.248741 -0.844469 0.000000
v -0.000000 -0.844469 -0.248741
v 0.849157 -0.977696 0.849157
v 0.849157 -0.844469 0.600416
v 0.849157 -0.977696 -0.600416
v 0.849157 -0.977696 -0.849157
v 0.849157 -0.977696 0.600416
v 0.849157 -0.844469 -0.600416
v -0.608113 -0.844469 0.856854
v 0.608113 -0.844469 0.856853
v -0.608113 -0.977696 0.856853
v 0.849157 -0.977696 0.856853
v -0.856854 -0.977696 0.856854
v 0.608113 -0.977696 0.856853
v 0.608112 -0.977696 -0.856854
v -0.608113 -0.844469 -0.856853
v 0.849157 -0.977696 -0.856854
v 0.608112 -0.844469 -0.856853
v -0.856854 -0.977696 -0.856854
v -0.608113 -0.977696 -0.856854
v -0.885073 -0.977696 0.636332
v -0.885074 -0.844469 -0.636332
v -0.885074 -0.977696 -0.856854
v -0.885073 -0.977696 0.856854
v -0.885073 -0.844469 0.636332
v -0.885074 -0.977696 -0.636332
v -0.887226 -0.887226 0.887226
v -0.887226 0.887226 0.887226
v -0.887226 -0.887226 -0.887226
v -0.887226 0.887226 -0.887226
v 0.887226 -0.887226 0.887226
v 0.887226 0.887226 0.887226
v 0.887226 -0.887226 -0.887226
v 0.887226 0.887226 -0.887226
v -1.000000 -1.000000 -1.000000
v -1.000000 1.000000 -1.000000
v 1.000000 -1.000000 -1.000000
v 1.000000 1.000000 -1.000000
v -1.000000 -1.000000 1.000000
v -1.000000 1.000000 1.000000
v 1.000000 -1.000000 1.000000
v 1.000000 1.000000 1.000000
v 0.720000 -0.720000 -1.000000
v -0.720000 -0.720000 1.000000
v 0.900000 -0.720000 0.720000
v 0.720000 -1.000000 -0.720000
v -0.720000 1.000000 -0.720000
v -1.000000 -0.720000 -0.720000
v 1.000000 -0.720000 0.720000
v 1.000000 -0.720000 -0.720000
v 1.000000 0.720000 -0.720000
v 1.000000 0.720000 0.720000
v 0.720000 1.000000 -0.720000
v 0.720000 1.000000 0.720000
v -0.720000 1.000000 0.720000
v 0.720000 -0.720000 1.000000
v 0.720000 0.720000 1.000000
v -0.720000 0.720000 1.000000
v -0.720000 -1.000000 -0.720000
v 0.720000 -1.000000 0.720000
v -0.720000 -1.000000 0.720000
v -0.720000 -0.720000 -1.000000
v -0.720000 0.720000 -1.000000
v 0.720000 0.720000 -1.000000
v -1.000000 -0.720000 0.720000
v -1.000000 0.720000 0.720000
v -1.000000 0.720000 -0.720000
v 0.900000 -0.720000 -0.720000
v 0.900000 0.720000 -0.720000
v 0.900000 0.720000 0.720000
v -0.900000 -0.720000 -0.720000
v -0.900000 -0.720000 0.720000
v -0.900000 0.720000 0.720000
v -0.900000 0.720000 -0.720000
v -0.720000 0.900000 -0.720000
v 0.720000 0.900000 -0.720000
v 0.720000 0.900000 0.720000
v -0.720000 0.900000 0.720000
v 0.720000 -0.900000 -0.720000
v -0.720000 -0.900000 -0.720000
v 0.720000 -0.900000 0.720000
v -0.720000 -0.900000 0.720000
v -0.720000 -0.720000 0.900000
v 0.720000 -0.720000 0.900000
v 0.720000 0.720000 0.900000
v -0.720000 0.720000 0.900000
v 0.720000 -0.720000 -0.900000
v -0.720000 -0.720000 -0.900000
v -0.720000 0.720000 -0.900000
v 0.720000 0.720000 -0.900000
vt 0.167619 0.856791
vt 0.167619 0.856791
vt 0.167619 0.856791
vt 0.167619 0.856791
vt 0.167619 0.856791
vt 0.167619 0.856791
vt 0.167619 0.856791
vt 0.167619 0.856791
vt 0.167619 0.856791
vt 0.167619 0.856791
vt 0.167619 0.856791
vt 0.167619 0.856791
vt 0.167619 0.856791
vt 0.167619 0.856791
vt 0.167619 0.856791
vt 0.167619 0.856791
vt 0.167619 0.856791
vt 0.167619 0.856791
vt 0.167619 0.856791
vt 0.167619 0.856791
vt 0.167619 0.856791
vt 0.167619 0.856791
vt 0.167619 0.856791
vt 0.167619 0.856791
vt 0.167619 0.856791
vt 0.167619 0.856791
vt 0.167619 0.856791
vt 0.167619 0.856791
vt 0.167619 0.856791
vt 0.167619 0.856791
vt 0.167619 0.856791
vt 0.167619 0.856791
vt 0.167619 0.856791
vt 0.167619 0.856791
vt 0.167619 0.856791
vt 0.167619 0.856791
vt 0.167619 0.856791
vt 0.167619 0.856791
vt 0.167619 0.856791
vt 0.167619 0.856791
vt 0.167619 0.856791
vt 0.167619 0.856791
vt 0.167619 0.856791
vt 0.167619 0.856791
vt 0.167619 0.856791
vt 0.167619 0.856791
vt 0.167619 0.856791
vt 0.167619 0.856791
vt 0.167619 0.856791
vt 0.167619 0.856791
vt 0.167619 0.856791
vt 0.167619 0.856791
vt 0.167619 0.856791
vt 0.167619 0.856791
vt 0.167619 0.856791
vt 0.167619 0.856791
vt 0.167619 0.856791
vt 0.167619 0.856791
vt 0.167619 0.856791
vt 0.167619 0.856791
vt 0.167619 0.856791
vt 0.167619 0.856791
vt 0.167619 0.856791
vt 0.167619 0.856791
vt 0.167619 0.856791
vt 0.167619 0.856791
vt 0.167619 0.856791
vt 0.167619 0.856791
vt 0.167619 0.856791
vt 0.167619 0.856791
vt 0.167619 0.856791
vt 0.167619 0.856791
vt 0.167619 0.856791
vt 0.167619 0.856791
vt 0.167619 0.856791
vt 0.167619 0.856791
vt 0.167619 0.856791
vt 0.167619 0.856791
vt 0.167619 0.856791
vt 0.167619 0.856791
vt 0.167619 0.856791
vt 0.167619 0.856791
vt 0.167619 0.856791
vt 0.167619 0.856791
vt 0.167619 0.856791
vt 0.167619 0.856791
vt 0.167619 0.856791
vt 0.167619 0.856791
vt 0.167619 0.856791
vt 0.167619 0.856791
vt 0.167619 0.856791
vt 0.167619 0.856791
vt 0.167619 0.856791
vt 0.167619 0.856791
vt 0.167619 0.856791
vt 0.167619 0.856791
vt 0.167619 0.856791
vt 0.167619 0.856791
vt 0.167619 0.856791
vt 0.167619 0.856791
vt 0.167619 0.856791
vt 0.167619 0.856791
vt 0.167619 0.856791
vt 0.167619 0.856791
vt 0.167619 0.856791
vt 0.167619 0.856791
vt 0.167619 0.856791
vt 0.167619 0.856791
vt 0.167619 0.856791
vt 0.167619 0.856791
vt 0.167619 0.856791
vt 0.167619 0.856791
vt 0.167619 0.856791
vt 0.167619 0.856791
vt 0.167619 0.856791
vt 0.167619 0.856791
vt 0.167619 0.856791
vt 0.167619 0.856791
vt 0.167619 0.856791
vt 0.167619 0.856791
vt 0.167619 0.856791
vt 0.167619 0.856791
vt 0.167619 0.856791
vt 0.167619 0.856791
vt 0.167619 0.856791
vt 0.167619 0.856791
vt 0.167619 0.856791
vt 0.167619 0.856791
vt 0.167619 0.856791
vt 0.167619 0.856791
vt 0.167619 0.856791
vt 0.167619 0.856791
vt 0.167619 0.856791
vt 0.167619 0.856791
vt 0.167619 0.856791
vt 0.167619 0.856791
vt 0.167619 0.856791
vt 0.167619 0.856791
vt 0.167619 0.856791
vt 0.167619 0.856791
vt 0.167619 0.856791
vt 0.167619 0.856791
vt 0.167619 0.856791
vt 0.167619 0.856791
vt 0.167619 0.856791
vt 0.167619 0.856791
vt 0.167619 0.856791
vt 0.167619 0.856791
vt 0.167619 0.856791
vt 0.167619 0.856791
vt 0.167619 0.856791
vt 0.167619 0.856791
vt 0.167619 0.856791
vt 0.167619 0.856791
vt 0.167619 0.856791
vt 0.167619 0.856791
vt 0.167619 0.856791
vt 0.167619 0.856791
vt 0.167619 0.856791
vt 0.167619 0.856791
vt 0.167619 0.856791
vt 0.167619 0.856791
vt 0.167619 0.856791
vt 0.167619 0.856791
vt 0.167619 0.856791
vt 0.167619 0.856791
vt 0.167619 0.856791
vt 0.167619 0.856791
vt 0.167619 0.856791
vt 0.167619 0.856791
vt 0.167619 0.856791
vt 0.167619 0.856791
vt 0.167619 0.856791
vt 0.167619 0.856791
vt 0.167619 0.856791
vt 0.167619 0.856791
vt 0.167619 0.856791
vt 0.167619 0.856791
vt 0.167619 0.856791
vt 0.167619 0.856791
vt 0.167619 0.856791
vt 0.167619 0.856791
vt 0.167619 0.856791
vt 0.167619 0.856791
vt 0.167619 0.856791
vt 0.167619 0.856791
vt 0.167619 0.856791
vt 0.167619 0.856791
vt 0.167619 0.856791
vt 0.167619 0.856791
vt 0.167619 0.856791
vt 0.167619 0.856791
vt 0.167619 0.856791
vt 0.167619 0.856791
vt 0.167619 0.856791
vt 0.167619 0.856791
vt 0.167619 0.856791
vt 0.167619 0.856791
vt 0.204531 0.859867
vt 0.204531 0.859867
vt 0.204531 0.859867
vt 0.204531 0.859867
vt 0.204531 0.859867
vt 0.204531 0.859867
vt 0.204531 0.859867
vt 0.204531 0.859867
vt 0.167619 0.856791
vt 0.167619 0.856791
vt 0.167619 0.856791
vt 0.167619 0.856791
vt 0.167619 0.856791
vt 0.167619 0.856791
vt 0.167619 0.856791
vt 0.167619 0.856791
vt 0.167619 0.856791
vt 0.167619 0.856791
vt 0.167619 0.856791
vt 0.167619 0.856791
vt 0.167619 0.856791
vt 0.167619 0.856791
vt 0.167619 0.856791
vt 0.167619 0.856791
vt 0.167619 0.856791
vt 0.167619 0.856791
vt 0.167619 0.856791
vt 0.167619 0.856791
vt 0.167619 0.856791
vt 0.167619 0.856791
vt 0.167619 0.856791
vt 0.167619 0.856791
vt 0.167619 0.856791
vt 0.167619 0.856791
vt 0.167619 0.856791
vt 0.167619 0.856791
vt 0.167619 0.856791
vt 0.167619 0.856791
vt 0.167619 0.856791
vt 0.167619 0.856791
vt 0.167619 0.856791
vt 0.167619 0.856791
vt 0.167619 0.856791
vt 0.167619 0.856791
vt 0.167619 0.856791
vt 0.167619 0.856791
vt 0.167619 0.856791
vt 0.167619 0.856791
vt 0.167619 0.856791
vt 0.167619 0.856791
vt 0.167619 0.856791
vt 0.167619 0.856791
vt 0.167619 0.856791
vt 0.167619 0.856791
vt 0.167619 0.856791
vt 0.167619 0.856791
vt 0.167619 0.856791
vt 0.167619 0.856791
vt 0.167619 0.856791
vt 0.167619 0.856791
vt 0.167619 0.856791
vt 0.167619 0.856791
vt 0.167619 0.856791
vt 0.167619 0.856791
vn -1.0000 0.0000 -0.0000
vn 0.0000 0.7071 -0.7071
vn 0.0000 0.7071 0.7071
vn 0.0000 -0.7071 0.7071
vn 0.0000 -0.7071 -0.7071
vn 1.0000 0.0000 0.0000
vn -0.0000 -0.0000 1.0000
vn -0.7071 0.7071 0.0000
vn 0.7071 0.7071 -0.0000
vn 0.7071 -0.7071 -0.0000
vn -0.7071 -0.7071 -0.0000
vn 0.0000 -0.0000 -1.0000
vn 0.0000 1.0000 -0.0000
vn 0.7071 0.0000 -0.7071
vn 0.7071 -0.0000 0.7071
vn -0.7071 0.0000 0.7071
vn -0.7071 0.0000 -0.7071
vn -0.0000 -1.0000 -0.0000
usemtl Atlas
s off
f 1/1/1 5/2/1 22/3/1 24/4/1 13/5/1
f 1/1/1 4/6/1 14/7/1 10/8/1
f 1/1/1 3/9/1 18/10/1 20/11/1
f 1/1/1 2/12/1 33/13/1 30/14/1 26/15/1
f 3/9/2 7/16/2 16/17/2 18/10/2
f 4/6/3 6/18/3 11/19/3 14/7/3
f 5/2/4 9/20/4 25/21/4 22/3/4
f 2/12/5 8/22/5 29/23/5 33/13/5
f 13/5/1 12/24/1 4/6/1 1/1/1
f 10/8/1 19/25/1 21/26/1 3/9/1 1/1/1
f 12/24/2 15/27/2 6/18/2 4/6/2
f 20/11/1 31/28/1 28/29/1 2/12/1 1/1/1
f 21/26/5 17/30/5 7/16/5 3/9/5
f 27/31/3 23/32/3 9/20/3 5/2/3
f 26/15/1 27/31/1 5/2/1 1/1/1
f 28/29/4 32/33/4 8/22/4 2/12/4
f 34/34/6 38/35/6 55/36/6 57/37/6 46/38/6
f 34/34/6 37/39/6 47/40/6 43/41/6
f 34/34/6 36/42/6 51/43/6 53/44/6
f 34/34/6 35/45/6 66/46/6 63/47/6 59/48/6
f 36/42/3 40/49/3 49/50/3 51/43/3
f 37/39/2 39/51/2 44/52/2 47/40/2
f 38/35/5 42/53/5 58/54/5 55/36/5
f 35/45/4 41/55/4 62/56/4 66/46/4
f 46/38/6 45/57/6 37/39/6 34/34/6
f 43/41/6 52/58/6 54/59/6 36/42/6 34/34/6
f 45/57/3 48/60/3 39/51/3 37/39/3
f 53/44/6 64/61/6 61/62/6 35/45/6 34/34/6
f 54/59/4 50/63/4 40/49/4 36/42/4
f 60/64/2 56/65/2 42/53/2 38/35/2
f 59/48/6 60/64/6 38/35/6 34/34/6
f 61/62/5 65/66/5 41/55/5 35/45/5
f 67/67/7 71/68/7 88/69/7 90/70/7 79/71/7
f 67/67/7 70/72/7 80/73/7 76/74/7
f 67/67/7 69/75/7 84/76/7 86/77/7
f 67/67/7 68/78/7 99/79/7 96/80/7 92/81/7
f 69/75/8 73/82/8 82/83/8 84/76/8
f 70/72/9 72/84/9 77/85/9 80/73/9
f 71/68/10 75/86/10 91/87/10 88/69/10
f 68/78/11 74/88/11 95/89/11 99/79/11
f 79/71/7 78/90/7 70/72/7 67/67/7
f 76/74/7 85/91/7 87/92/7 69/75/7 67/67/7
f 78/90/8 81/93/8 72/84/8 70/72/8
f 86/77/7 97/94/7 94/95/7 68/78/7 67/67/7
f 87/92/11 83/96/11 73/82/11 69/75/11
f 93/97/9 89/98/9 75/86/9 71/68/9
f 92/81/7 93/97/7 71/68/7 67/67/7
f 94/95/10 98/99/10 74/88/10 68/78/10
f 100/100/12 104/101/12 121/102/12 123/103/12 112/104/12
f 100/100/12 103/105/12 113/106/12 109/107/12
f 100/100/12 102/108/12 117/109/12 119/110/12
f 100/100/12 101/111/12 132/112/12 129/113/12 125/114/12
f 102/108/9 106/115/9 115/116/9 117/109/9
f 103/105/8 105/117/8 110/118/8 113/106/8
f 104/101/11 108/119/11 124/120/11 121/102/11
f 101/111/10 107/121/10 128/122/10 132/112/10
f 112/104/12 111/123/12 103/105/12 100/100/12
f 109/107/12 118/124/12 120/125/12 102/108/12 100/100/12
f 111/123/9 114/126/9 105/117/9 103/105/9
f 119/110/12 130/127/12 127/128/12 101/111/12 100/100/12
f 120/125/10 116/129/10 106/115/10 102/108/10
f 126/130/8 122/131/8 108/119/8 104/101/8
f 125/114/12 126/130/12 104/101/12 100/100/12
f 127/128/11 131/132/11 107/121/11 101/111/11
f 133/133/13 137/134/13 154/135/13 156/136/13 145/137/13
f 133/133/13 136/138/13 146/139/13 142/140/13
f 133/133/13 135/141/13 150/142/13 152/143/13
f 133/133/13 134/144/13 165/145/13 162/146/13 158/147/13
f 135/141/14 139/148/14 148/149/14 150/142/14
f 136/138/15 138/150/15 143/151/15 146/139/15
f 137/134/16 141/152/16 157/153/16 154/135/16
f 134/144/17 140/154/17 161/155/17 165/145/17
f 145/137/13 144/156/13 136/138/13 133/133/13
f 142/140/13 151/157/13 153/158/13 135/141/13 133/133/13
f 144/156/14 147/159/14 138/150/14 136/138/14
f 152/143/13 163/160/13 160/161/13 134/144/13 133/133/13
f 153/158/17 149/162/17 139/148/17 135/141/17
f 159/163/15 155/164/15 141/152/15 137/134/15
f 158/147/13 159/163/13 137/134/13 133/133/13
f 160/161/16 164/165/16 140/154/16 134/144/16
f 166/166/18 170/167/18 187/168/18 189/169/18 178/170/18
f 166/166/18 169/171/18 179/172/18 175/173/18
f 166/166/18 168/174/18 183/175/18 185/176/18
f 166/166/18 167/177/18 198/178/18 195/179/18 191/180/18
f 168/174/15 172/181/15 181/182/15 183/175/15
f 169/171/14 171/183/14 176/184/14 179/172/14
f 170/167/17 174/185/17 190/186/17 187/168/17
f 167/177/16 173/187/16 194/188/16 198/178/16
f 178/170/18 177/189/18 169/171/18 166/166/18
f 175/173/18 184/190/18 186/191/18 168/174/18 166/166/18
f 177/189/15 180/192/15 171/183/15 169/171/15
f 185/176/18 196/193/18 193/194/18 167/177/18 166/166/18
f 186/191/16 182/195/16 172/181/16 168/174/16
f 192/196/14 188/197/14 174/185/14 170/167/14
f 191/180/18 192/196/18 170/167/18 166/166/18
f 193/194/17 197/198/17 173/187/17 167/177/17
f 199/199/1 200/200/1 202/201/1 201/202/1
f 201/202/12 202/201/12 206/203/12 205/204/12
f 205/204/6 206/203/6 204/205/6 203/206/6
f 203/206/7 204/205/7 200/200/7 199/199/7
f 201/202/18 205/204/18 203/206/18 199/199/18
f 206/203/13 202/201/13 200/200/13 204/205/13
f 213/207/18 211/208/18 233/209/18 232/210/18
f 211/208/18 207/211/18 231/212/18 233/209/18
f 207/211/18 209/213/18 218/214/18 231/212/18
f 209/213/18 213/207/18 232/210/18 218/214/18
f 210/215/13 208/216/13 219/217/13 225/218/13
f 214/219/13 210/215/13 225/218/13 226/220/13
f 212/221/13 214/219/13 226/220/13 227/222/13
f 208/216/13 212/221/13 227/222/13 219/217/13
f 207/211/1 211/208/1 237/223/1 220/224/1
f 208/216/1 207/211/1 220/224/1 239/225/1
f 212/221/1 208/216/1 239/225/1 238/226/1
f 211/208/1 212/221/1 238/226/1 237/223/1
f 211/208/7 213/207/7 228/227/7 216/228/7
f 213/207/7 214/219/7 229/229/7 228/227/7
f 214/219/7 212/221/7 230/230/7 229/229/7
f 212/221/7 211/208/7 216/228/7 230/230/7
f 214/219/6 213/207/6 221/231/6 224/232/6
f 210/215/6 214/219/6 224/232/6 223/233/6
f 209/213/6 210/215/6 223/233/6 222/234/6
f 213/207/6 209/213/6 222/234/6 221/231/6
f 207/211/12 208/216/12 235/235/12 234/236/12
f 208/216/12 210/215/12 236/237/12 235/235/12
f 210/215/12 209/213/12 215/238/12 236/237/12
f 209/213/12 207/211/12 234/236/12 215/238/12
f 223/233/18 224/232/18 242/239/18 241/240/18
f 224/232/12 221/231/12 217/241/12 242/239/12
f 220/224/13 237/223/13 244/242/13 243/243/13
f 239/225/7 220/224/7 243/243/7 246/244/7
f 218/214/1 232/210/1 253/245/1 251/246/1
f 233/209/6 231/212/6 252/247/6 254/248/6
f 226/220/1 225/218/1 248/249/1 249/250/1
f 219/217/6 227/222/6 250/251/6 247/252/6
f 234/236/6 235/235/6 261/253/6 260/254/6
f 216/228/13 228/227/13 256/255/13 255/256/13
f 228/227/1 229/229/1 257/257/1 256/255/1
f 235/235/18 236/237/18 262/258/18 261/253/18
f 231/212/7 218/214/7 251/246/7 252/247/7
f 232/210/12 233/209/12 254/248/12 253/245/12
f 225/218/7 219/217/7 247/252/7 248/249/7
f 227/222/12 226/220/12 249/250/12 250/251/12
f 236/237/1 215/238/1 259/259/1 262/258/1
f 229/229/18 230/230/18 258/260/18 257/257/18
f 230/230/6 216/228/6 255/256/6 258/260/6
f 215/238/13 234/236/13 260/254/13 259/259/13
f 221/231/13 222/234/13 240/261/13 217/241/13
f 222/234/7 223/233/7 241/240/7 240/261/7
f 238/226/18 239/225/18 246/244/18 245/262/18
f 237/223/12 238/226/12 245/262/12 244/242/12
