# Blender v3.0.0 OBJ File: 'Block_Blank.blend'
# www.blender.org
mtllib Block_Blank.mtl
o Block_Blank_Cube.516
v -1.000000 -1.000000 -1.000000
v -1.000000 1.000000 -1.000000
v 1.000000 -1.000000 -1.000000
v 1.000000 1.000000 -1.000000
v -1.000000 -1.000000 1.000000
v -1.000000 1.000000 1.000000
v 1.000000 -1.000000 1.000000
v 1.000000 1.000000 1.000000
v 0.817034 -1.000000 -0.817034
v 0.817034 -1.000000 0.817034
v -0.817034 -1.000000 0.817034
v -0.817034 -1.000000 -0.817034
v 0.817034 1.000000 0.817034
v 0.817034 1.000000 -0.817034
v -0.817034 1.000000 -0.817034
v -0.817034 1.000000 0.817034
v -1.000000 -0.817034 0.817034
v -1.000000 0.817034 0.817034
v -1.000000 0.817034 -0.817034
v -1.000000 -0.817034 -0.817034
v 0.817034 -0.817034 1.000000
v 0.817034 0.817034 1.000000
v -0.817034 0.817034 1.000000
v -0.817034 -0.817034 1.000000
v 1.000000 -0.817034 -0.817034
v 1.000000 0.817034 -0.817034
v 1.000000 0.817034 0.817034
v 1.000000 -0.817034 0.817034
v -0.817034 -0.817034 -1.000000
v -0.817034 0.817034 -1.000000
v 0.817034 0.817034 -1.000000
v 0.817034 -0.817034 -1.000000
v 0.460860 -1.000000 -0.460860
v 0.460860 -1.000000 0.460860
v -0.460860 -1.000000 0.460860
v -0.460860 -1.000000 -0.460860
v 0.460860 1.000000 0.460860
v 0.460860 1.000000 -0.460860
v -0.460860 1.000000 -0.460860
v -0.460860 1.000000 0.460860
v -1.000000 -0.460860 0.460860
v -1.000000 0.460860 0.460860
v -1.000000 0.460860 -0.460860
v -1.000000 -0.460860 -0.460860
v 0.460860 -0.460860 1.000000
v 0.460860 0.460860 1.000000
v -0.460860 0.460860 1.000000
v -0.460860 -0.460860 1.000000
v 1.000000 -0.460860 -0.460860
v 1.000000 0.460860 -0.460860
v 1.000000 0.460860 0.460860
v 1.000000 -0.460860 0.460860
v -0.460860 -0.460860 -1.000000
v -0.460860 0.460860 -1.000000
v 0.460860 0.460860 -1.000000
v 0.460860 -0.460860 -1.000000
vt 0.141602 0.891602
vt 0.141602 0.891602
vt 0.141602 0.891602
vt 0.141602 0.891602
vt 0.141602 0.891602
vt 0.141602 0.891602
vt 0.141602 0.891602
vt 0.141602 0.891602
vt 0.141602 0.891602
vt 0.141602 0.891602
vt 0.141602 0.891602
vt 0.141602 0.891602
vt 0.145508 0.860352
vt 0.145508 0.860352
vt 0.145508 0.860352
vt 0.145508 0.860352
vt 0.145508 0.860352
vt 0.145508 0.860352
vt 0.145508 0.860352
vt 0.145508 0.860352
vt 0.145508 0.860352
vt 0.145508 0.860352
vt 0.145508 0.860352
vt 0.145508 0.860352
vt 0.145508 0.860352
vt 0.145508 0.860352
vt 0.145508 0.860352
vt 0.145508 0.860352
vt 0.145508 0.860352
vt 0.145508 0.860352
vt 0.145508 0.860352
vt 0.145508 0.860352
vt 0.145508 0.860352
vt 0.145508 0.860352
vt 0.145508 0.860352
vt 0.145508 0.860352
vt 0.145508 0.860352
vt 0.145508 0.860352
vt 0.145508 0.860352
vt 0.145508 0.860352
vt 0.145508 0.860352
vt 0.145508 0.860352
vt 0.145508 0.860352
vt 0.145508 0.860352
vt 0.141602 0.891602
vt 0.141602 0.891602
vt 0.141602 0.891602
vt 0.141602 0.891602
vt 0.141602 0.891602
vt 0.141602 0.891602
vt 0.141602 0.891602
vt 0.141602 0.891602
vt 0.141602 0.891602
vt 0.141602 0.891602
vt 0.141602 0.891602
vt 0.141602 0.891602
vt 0.141602 0.891602
vt 0.141602 0.891602
vt 0.141602 0.891602
vt 0.141602 0.891602
vt 0.141602 0.891602
vt 0.141602 0.891602
vt 0.141602 0.891602
vt 0.141602 0.891602
vt 0.141602 0.891602
vt 0.141602 0.891602
vt 0.141602 0.891602
vt 0.141602 0.891602
vt 0.141602 0.891602
vt 0.141602 0.891602
vt 0.141602 0.891602
vt 0.141602 0.891602
vt 0.141602 0.891602
vt 0.141602 0.891602
vt 0.141602 0.891602
vt 0.141602 0.891602
vt 0.141602 0.891602
vt 0.141602 0.891602
vt 0.141602 0.891602
vt 0.141602 0.891602
vn 0.0000 1.0000 0.0000
vn 0.0000 -1.0000 0.0000
vn -1.0000 0.0000 0.0000
vn 0.0000 0.0000 1.0000
vn 1.0000 0.0000 0.0000
vn -0.0000 0.0000 -1.0000
usemtl Atlas
s off
f 37/1/1 38/2/1 39/3/1 40/4/1
f 9/5/2 33/6/2 36/7/2 12/8/2
f 12/8/2 36/7/2 35/9/2 11/10/2
f 11/10/2 35/9/2 34/11/2 10/12/2
f 10/12/2 34/11/2 33/6/2 9/5/2
f 33/6/2 34/11/2 35/9/2 36/7/2
f 7/13/2 10/14/2 9/15/2 3/16/2
f 5/17/2 11/18/2 10/14/2 7/13/2
f 1/19/2 12/20/2 11/18/2 5/17/2
f 3/16/2 9/15/2 12/20/2 1/19/2
f 4/21/1 14/22/1 13/23/1 8/24/1
f 2/25/1 15/26/1 14/22/1 4/21/1
f 6/27/1 16/28/1 15/26/1 2/25/1
f 8/24/1 13/23/1 16/28/1 6/27/1
f 6/27/3 18/29/3 17/30/3 5/17/3
f 2/25/3 19/31/3 18/29/3 6/27/3
f 1/19/3 20/32/3 19/31/3 2/25/3
f 5/17/3 17/30/3 20/32/3 1/19/3
f 8/24/4 22/33/4 21/34/4 7/13/4
f 6/27/4 23/35/4 22/33/4 8/24/4
f 5/17/4 24/36/4 23/35/4 6/27/4
f 7/13/4 21/34/4 24/36/4 5/17/4
f 4/21/5 26/37/5 25/38/5 3/16/5
f 8/24/5 27/39/5 26/37/5 4/21/5
f 7/13/5 28/40/5 27/39/5 8/24/5
f 3/16/5 25/38/5 28/40/5 7/13/5
f 2/25/6 30/41/6 29/42/6 1/19/6
f 4/21/6 31/43/6 30/41/6 2/25/6
f 3/16/6 32/44/6 31/43/6 4/21/6
f 1/19/6 29/42/6 32/44/6 3/16/6
f 14/45/1 38/2/1 37/1/1 13/46/1
f 15/47/1 39/3/1 38/2/1 14/45/1
f 16/48/1 40/4/1 39/3/1 15/47/1
f 13/46/1 37/1/1 40/4/1 16/48/1
f 41/49/3 42/50/3 43/51/3 44/52/3
f 18/53/3 42/50/3 41/49/3 17/54/3
f 19/55/3 43/51/3 42/50/3 18/53/3
f 20/56/3 44/52/3 43/51/3 19/55/3
f 17/54/3 41/49/3 44/52/3 20/56/3
f 45/57/4 46/58/4 47/59/4 48/60/4
f 22/61/4 46/58/4 45/57/4 21/62/4
f 23/63/4 47/59/4 46/58/4 22/61/4
f 24/64/4 48/60/4 47/59/4 23/63/4
f 21/62/4 45/57/4 48/60/4 24/64/4
f 49/65/5 50/66/5 51/67/5 52/68/5
f 26/69/5 50/66/5 49/65/5 25/70/5
f 27/71/5 51/67/5 50/66/5 26/69/5
f 28/72/5 52/68/5 51/67/5 27/71/5
f 25/70/5 49/65/5 52/68/5 28/72/5
f 53/73/6 54/74/6 55/75/6 56/76/6
f 30/77/6 54/74/6 53/73/6 29/78/6
f 31/79/6 55/75/6 54/74/6 30/77/6
f 32/80/6 56/76/6 55/75/6 31/79/6
f 29/78/6 53/73/6 56/76/6 32/80/6
