# Blender v3.0.0 OBJ File: 'QuestionMark.blend'
# www.blender.org
mtllib QuestionMark.mtl
o QuestionMark_Cube.028
v -1.000000 -1.000000 -1.000000
v -1.000000 1.000000 -1.000000
v 1.000000 -1.000000 -1.000000
v 1.000000 1.000000 -1.000000
v -1.000000 -1.000000 1.000000
v -1.000000 1.000000 1.000000
v 1.000000 -1.000000 1.000000
v 1.000000 1.000000 1.000000
vt 0.198576 0.602290
vt 0.198576 0.798556
vt 0.002309 0.798556
vt 0.002309 0.602290
vt 0.198576 0.602290
vt 0.198576 0.798556
vt 0.002309 0.798556
vt 0.002309 0.602290
vt 0.198576 0.602290
vt 0.198576 0.798556
vt 0.002309 0.798556
vt 0.002309 0.602290
vt 0.198576 0.602290
vt 0.198576 0.798556
vt 0.002309 0.798556
vt 0.002309 0.602290
vt 0.198576 0.798556
vt 0.002309 0.798556
vt 0.002309 0.602290
vt 0.198576 0.602290
vn 0.0000 0.0000 -1.0000
vn 1.0000 0.0000 0.0000
vn -0.0000 0.0000 1.0000
vn -1.0000 0.0000 -0.0000
vn 0.0000 -1.0000 0.0000
vn 0.0000 1.0000 0.0000
usemtl Blocks_Pixelart
s off
f 1/1/1 2/2/1 4/3/1 3/4/1
f 3/5/2 4/6/2 8/7/2 7/8/2
f 7/9/3 8/10/3 6/11/3 5/12/3
f 5/13/4 6/14/4 2/15/4 1/16/4
f 3/4/5 7/9/5 5/17/5 1/18/5
f 8/10/6 4/3/6 2/19/6 6/20/6
