# Blender v3.0.0 OBJ File: 'Snow.blend'
# www.blender.org
mtllib Snow.mtl
o Snow_Cube.026
v -1.000000 -1.000000 -1.000000
v -1.000000 1.000000 -1.000000
v 1.000000 -1.000000 -1.000000
v 1.000000 1.000000 -1.000000
v -1.000000 -1.000000 1.000000
v -1.000000 1.000000 1.000000
v 1.000000 -1.000000 1.000000
v 1.000000 1.000000 1.000000
vt 0.998535 0.801486
vt 0.998535 0.997751
vt 0.802269 0.997751
vt 0.802269 0.801486
vt 0.998535 0.801486
vt 0.998535 0.997751
vt 0.802269 0.997751
vt 0.802269 0.801486
vt 0.998535 0.801486
vt 0.998535 0.997751
vt 0.802269 0.997751
vt 0.802269 0.801486
vt 0.998535 0.801486
vt 0.998535 0.997751
vt 0.802269 0.997751
vt 0.802269 0.801486
vt 0.402293 0.801486
vt 0.598559 0.801486
vt 0.598559 0.997751
vt 0.402293 0.997751
vt 0.398744 0.797936
vt 0.202477 0.797936
vt 0.202477 0.601670
vt 0.398744 0.601670
vn 0.0000 0.0000 -1.0000
vn 1.0000 0.0000 0.0000
vn -0.0000 0.0000 1.0000
vn -1.0000 0.0000 -0.0000
vn 0.0000 -1.0000 0.0000
vn 0.0000 1.0000 0.0000
usemtl Blocks_Pixelart
s off
f 1/1/1 2/2/1 4/3/1 3/4/1
f 3/5/2 4/6/2 8/7/2 7/8/2
f 7/9/3 8/10/3 6/11/3 5/12/3
f 5/13/4 6/14/4 2/15/4 1/16/4
f 3/17/5 7/18/5 5/19/5 1/20/5
f 8/21/6 4/22/6 2/23/6 6/24/6
