# Blender v3.0.0 OBJ File: 'Wood.blend'
# www.blender.org
mtllib Wood.mtl
o Wood_Cube.601
v -1.000000 -1.000000 -1.000000
v -1.000000 1.000000 -1.000000
v 1.000000 -1.000000 -1.000000
v 1.000000 1.000000 -1.000000
v -1.000000 -1.000000 1.000000
v -1.000000 1.000000 1.000000
v 1.000000 -1.000000 1.000000
v 1.000000 1.000000 1.000000
vt 0.197027 0.402588
vt 0.197027 0.598853
vt 0.000761 0.598853
vt 0.000761 0.402588
vt 0.197027 0.402588
vt 0.197027 0.598853
vt 0.000761 0.598853
vt 0.000761 0.402588
vt 0.197027 0.402588
vt 0.197027 0.598853
vt 0.000761 0.598853
vt 0.000761 0.402588
vt 0.197027 0.402588
vt 0.197027 0.598853
vt 0.000761 0.598853
vt 0.000761 0.402588
vt 0.202286 0.002017
vt 0.398553 0.002017
vt 0.398553 0.198283
vt 0.202286 0.198283
vt 0.398553 0.198283
vt 0.202286 0.198283
vt 0.202286 0.002017
vt 0.398553 0.002017
vn 0.0000 0.0000 -1.0000
vn 1.0000 0.0000 0.0000
vn -0.0000 0.0000 1.0000
vn -1.0000 0.0000 -0.0000
vn 0.0000 -1.0000 0.0000
vn 0.0000 1.0000 0.0000
usemtl Blocks_Pixelart
s off
f 1/1/1 2/2/1 4/3/1 3/4/1
f 3/5/2 4/6/2 8/7/2 7/8/2
f 7/9/3 8/10/3 6/11/3 5/12/3
f 5/13/4 6/14/4 2/15/4 1/16/4
f 3/17/5 7/18/5 5/19/5 1/20/5
f 8/21/6 4/22/6 2/23/6 6/24/6
